<?xml version="1.0" encoding="utf-8"?>
<!-- Generator: Adobe Illustrator 17.1.0, SVG Export Plug-In . SVG Version: 6.00 Build 0)  -->
<!DOCTYPE svg PUBLIC "-//W3C//DTD SVG 1.1//EN" "http://www.w3.org/Graphics/SVG/1.1/DTD/svg11.dtd">
<svg version="1.1" id="Layer_1" xmlns="http://www.w3.org/2000/svg" xmlns:xlink="http://www.w3.org/1999/xlink" x="0px" y="0px"
	 viewBox="0 0 18 17.8" enable-background="new 0 0 18 17.8" xml:space="preserve">
<g id="FOLLOWING_ICON_2_">
	<path fill="#515253" d="M10.1,14.8h2.6c-0.4-5.1-4.4-9.1-9.5-9.5v2.6C6.8,8.3,9.7,11.2,10.1,14.8z"/>
	<path fill="#515253" d="M15.3,14.8H18C17.6,6.8,11.2,0.4,3.2,0v2.6C9.7,3,14.9,8.3,15.3,14.8z"/>
	<path fill="#515253" d="M4.1,9.7C1.8,9.7,0,11.5,0,13.7s1.8,4.1,4.1,4.1s4.1-1.8,4.1-4.1S6.3,9.7,4.1,9.7z M6.1,12H3.3v1.2H6v1.1
		H3.3v2.3H2.1v-5.7h4V12z"/>
</g>
</svg>
