<?xml version="1.0" encoding="utf-8"?>
<!-- Generator: Adobe Illustrator 17.1.0, SVG Export Plug-In . SVG Version: 6.00 Build 0)  -->
<!DOCTYPE svg PUBLIC "-//W3C//DTD SVG 1.1//EN" "http://www.w3.org/Graphics/SVG/1.1/DTD/svg11.dtd">
<svg version="1.1" id="Layer_1" xmlns="http://www.w3.org/2000/svg" xmlns:xlink="http://www.w3.org/1999/xlink" x="0px" y="0px"
	 viewBox="0 0 67.9 68.4" enable-background="new 0 0 67.9 68.4" xml:space="preserve">
<g id="REDWOOD_7_">
	<path fill="#D9D8D7" d="M23,68.4h27.5c0,0-3-0.4-7.5-4.1c-2.3-1.9-5.8-8.6-7.9-16.7c0.6-0.8,1.3-1.7,2.2-2.6c2-2,7-4,7-4
		s-4.4,0.3-6.8,1.4c-0.8,0.4-2,1.1-3.1,1.8c-0.7-3.3-1.1-6.6-1.2-9.9c1.2-1.3,2.9-3,4.9-4.6c3.7-2.8,11-5.1,11-5.1s-6.5,0.3-9.8,1.9
		c-1.5,0.7-3.8,1.9-5.9,3.1c0.2-2.1,0.7-4.2,1.4-6.1c5.2-14.5,12.1-17,12.1-17S42,7,36.4,12.7c-0.2-1.1-0.3-2.2-0.6-3.1
		c-0.1-0.4-0.2-0.7-0.3-1c-0.7-2.4-3.2-6.2-3.2-6.2s1.8,4.9,2,8c0.1,1.8,0,3.5-0.1,4.7c-1.7,2.1-3.4,4.6-5,7.8
		c-0.6,1.2-1.1,2.3-1.6,3.5c-1-1.5-2-3-2.9-3.9c-2.2-2.4-8.4-5.3-8.4-5.3s5.2,4.7,7.1,8.2c1.3,2.3,2.2,4.7,2.6,6
		c-0.8,3.3-1.3,6.7-1.4,10c-1.1-0.5-2.1-1.1-2.9-1.4c-2.4-1.1-7.1-1.5-7.1-1.5s5.3,1.8,7.9,3.7c0.7,0.6,1.4,1.1,2,1.7
		c-0.2,9.4,1.6,17.4,2,19.3C27.3,66.4,23,68.4,23,68.4z"/>
	<path fill="#D9D8D7" d="M52.6,32c-3.5,1.7-7,0.5-9.2-1.6c0.6,0,1.2-0.1,1.8-0.4c2.7-1.3,7.5-7.6,7.5-7.6s-6.9-2.3-10-0.6
		c-0.7,0.4-1.2,0.7-1.6,1.1c0.3-2.6,1.8-5,6.5-7.6c6.4-3.5,20.4,1.2,20.4,1.2S58.2,29.3,52.6,32z"/>
	<path fill="#D9D8D7" d="M20.1,8.7c2.6,2.6,2.7,6.1,1.6,8.7c-0.2-0.5-0.5-1-0.9-1.5c-2-2-9.2-4.3-9.2-4.3s0.1,6.9,2.7,9.2
		c0.5,0.5,1,0.8,1.5,1.1c-2.4,0.6-5.1,0-8.8-3.3C1.7,14,1.4,0,1.4,0S15.9,4.6,20.1,8.7z"/>
	<path fill="#D9D8D7" d="M17.4,31.7c3,1,4.3,3.7,4.3,6.1c-0.3-0.3-0.7-0.6-1.2-0.8c-2.3-0.8-8.6,0-8.6,0s2.6,5.2,5.4,6
		c0.6,0.2,1.1,0.3,1.5,0.3c-1.6,1.3-3.9,1.8-8,0.6C5.3,42.4,0,31.8,0,31.8S12.8,30.1,17.4,31.7z"/>
	<path fill="#D9D8D7" d="M47.1,47.5c-2.5,0.3-4.5-1.2-5.4-2.9c0.4,0.1,0.7,0.2,1.2,0.1c1.9-0.2,6.1-3.1,6.1-3.1s-3.9-2.9-6.1-2.5
		c-0.5,0.1-0.9,0.2-1.2,0.3c0.7-1.5,2.1-2.7,5.4-3.3c4.6-0.8,12.5,5.1,12.5,5.1S51.1,47,47.1,47.5z"/>
</g>
</svg>
