<?xml version="1.0" encoding="utf-8"?>
<!-- Generator: Adobe Illustrator 17.1.0, SVG Export Plug-In . SVG Version: 6.00 Build 0)  -->
<!DOCTYPE svg PUBLIC "-//W3C//DTD SVG 1.1//EN" "http://www.w3.org/Graphics/SVG/1.1/DTD/svg11.dtd">
<svg version="1.1" id="Layer_1" xmlns="http://www.w3.org/2000/svg" xmlns:xlink="http://www.w3.org/1999/xlink" x="0px" y="0px"
	 viewBox="0 0 75.9 91.8" enable-background="new 0 0 75.9 91.8" xml:space="preserve">
<g id="REDWOOD_2_">
	<path fill="#D9D8D7" d="M28.9,91.8h27.5c0,0-3-0.4-7.5-4.1c-2.3-1.9-5.8-8.6-7.9-16.7c0.6-0.8,1.3-1.7,2.2-2.6c2-2,7-4,7-4
		s-4.4,0.3-6.8,1.4c-0.8,0.4-2,1.1-3.1,1.8c-0.7-3.3-1.1-6.6-1.2-9.9c1.2-1.3,2.9-3,4.9-4.6c3.7-2.8,11-5.1,11-5.1s-6.5,0.3-9.8,1.9
		c-1.5,0.7-3.8,1.9-5.9,3.1c0.2-2.1,0.7-4.2,1.4-6.1c5.2-14.5,12.1-17,12.1-17s-4.7,0.3-10.4,6c-0.2-1.1-0.3-2.2-0.6-3.1
		c-0.1-0.4-0.2-0.7-0.3-1c-0.7-2.4-3.2-6.2-3.2-6.2s1.8,4.9,2,8c0.1,1.8,0,3.5-0.1,4.7c-1.7,2.1-3.4,4.6-5,7.8
		c-0.6,1.2-1.1,2.3-1.6,3.5c-1-1.5-2-3-2.9-3.9c-2.2-2.4-8.4-5.3-8.4-5.3s5.2,4.7,7.1,8.2c1.3,2.3,2.2,4.7,2.6,6
		c-0.8,3.3-1.3,6.7-1.4,10c-1.1-0.5-2.1-1.1-2.9-1.4c-2.4-1.1-7.1-1.5-7.1-1.5s5.3,1.8,7.9,3.7c0.7,0.6,1.4,1.1,2,1.7
		c-0.2,9.4,1.6,17.4,2,19.3C33.3,89.9,28.9,91.8,28.9,91.8z"/>
	<path fill="#D9D8D7" d="M58.6,55.4c-3.5,1.7-7,0.5-9.2-1.6c0.6,0,1.2-0.1,1.8-0.4c2.7-1.3,7.5-7.6,7.5-7.6s-6.9-2.3-10-0.6
		c-0.7,0.4-1.2,0.7-1.6,1.1c0.3-2.6,1.8-5,6.5-7.6c6.4-3.5,20.4,1.2,20.4,1.2S64.1,52.7,58.6,55.4z"/>
	<path fill="#D9D8D7" d="M60.6,33.7c-2.7,2.4-6.1,2.2-8.5,0.9c0.5-0.1,1-0.4,1.5-0.8c2.1-1.8,4.7-8.6,4.7-8.6s-6.7-0.3-9,2
		c-0.5,0.5-0.9,0.9-1.2,1.4c-0.4-2.3,0.3-4.9,3.8-8.3c4.8-4.7,18.3-4.1,18.3-4.1S64.8,30,60.6,33.7z"/>
	<path fill="#D9D8D7" d="M26,32.1c2.6,2.6,2.7,6.1,1.6,8.7c-0.2-0.5-0.5-1-0.9-1.5c-2-2-9.2-4.3-9.2-4.3s0.1,6.9,2.7,9.2
		c0.5,0.5,1,0.8,1.5,1.1c-2.4,0.6-5.1,0-8.8-3.3c-5.2-4.6-5.5-18.6-5.5-18.6S21.9,28,26,32.1z"/>
	<path fill="#D9D8D7" d="M23.4,55.1c3,1,4.3,3.7,4.3,6.1c-0.3-0.3-0.7-0.6-1.2-0.8c-2.3-0.8-8.6,0-8.6,0s2.6,5.2,5.4,6
		c0.6,0.2,1.1,0.3,1.5,0.3c-1.6,1.3-3.9,1.8-8,0.6C11.2,65.8,5.9,55.2,5.9,55.2S18.7,53.5,23.4,55.1z"/>
	<path fill="#D9D8D7" d="M44.8,15.9c2.2,3.7,1.1,7.6-1,10.2c0-0.6-0.2-1.3-0.6-1.9c-1.7-2.9-9-7.6-9-7.6s-2,7.7,0.2,11.1
		c0.4,0.7,0.9,1.2,1.3,1.7c-2.8-0.1-5.7-1.6-8.8-6.4c-4.3-6.7-0.4-22.4-0.4-22.4S41.4,10.1,44.8,15.9z"/>
	<path fill="#D9D8D7" d="M53.1,70.9c-2.5,0.3-4.5-1.2-5.4-2.9c0.4,0.1,0.7,0.2,1.2,0.1c1.9-0.2,6.1-3.1,6.1-3.1s-3.9-2.9-6.1-2.5
		c-0.5,0.1-0.9,0.2-1.2,0.3c0.7-1.5,2.1-2.7,5.4-3.3c4.6-0.8,12.5,5.1,12.5,5.1S57,70.4,53.1,70.9z"/>
	<path fill="#D9D8D7" d="M0,42.6c0,0,5.6-1.1,8.7,0.7C11.8,45,12,49,12,49s-3.1,2.2-6.3,0.6C2.5,48,0,42.6,0,42.6z"/>
	<path fill="#D9D8D7" d="M17,75.6c0,0,2.8-4.9,6.1-6.2c3.4-1.2,6.5,1.2,6.5,1.2s-0.3,3.8-3.6,5.2C22.7,77.2,17,75.6,17,75.6z"/>
	<path fill="#D9D8D7" d="M75.9,29.1c0,0-2.1,3.8-4.7,4.8c-2.6,1-5-0.9-5-0.9s0.2-2.9,2.8-4C71.5,27.9,75.9,29.1,75.9,29.1z"/>
	<path fill="#D9D8D7" d="M57.6,78.6c0,0-4.3,0.6-6.7-0.9c-2.3-1.5-2.3-4.5-2.3-4.5s2.5-1.6,4.9-0.2C55.9,74.4,57.6,78.6,57.6,78.6z"
		/>
	<path fill="#D9D8D7" d="M12.7,14.5c0,0,5,0.3,7.3,2.4c2.3,2.2,1.6,5.6,1.6,5.6s-3.1,1.3-5.5-0.8C13.7,19.7,12.7,14.5,12.7,14.5z"/>
	<path fill="#D9D8D7" d="M70.6,54.5c0,0-2.2,3.9-4.9,4.8c-2.7,0.9-5.1-1-5.1-1s0.3-3,2.9-4C66.1,53.2,70.6,54.5,70.6,54.5z"/>
	<path fill="#D9D8D7" d="M52.7,0c0,0,2.9,5.7,1.9,9.6c-0.9,3.9-5.1,5.3-5.1,5.3s-3.3-2.6-2.6-6.5C47.6,4.4,52.7,0,52.7,0z"/>
</g>
</svg>
