<?xml version="1.0" encoding="utf-8"?>
<!-- Generator: Adobe Illustrator 17.1.0, SVG Export Plug-In . SVG Version: 6.00 Build 0)  -->
<!DOCTYPE svg PUBLIC "-//W3C//DTD SVG 1.1//EN" "http://www.w3.org/Graphics/SVG/1.1/DTD/svg11.dtd">
<svg version="1.1" id="Layer_1" xmlns="http://www.w3.org/2000/svg" xmlns:xlink="http://www.w3.org/1999/xlink" x="0px" y="0px"
	 viewBox="0 0 76.6 92.5" enable-background="new 0 0 76.6 92.5" xml:space="preserve">
<g id="REDWOOD_12_">
	<path fill="none" stroke="#D9D8D7" stroke-width="0.5" stroke-miterlimit="10" stroke-dasharray="1" d="M29.3,92.2h27.5
		c0,0-3-0.4-7.5-4.1c-2.3-1.9-5.8-8.6-7.9-16.7c0.6-0.8,1.3-1.7,2.2-2.6c2-2,7-4,7-4s-4.4,0.3-6.8,1.4c-0.8,0.4-2,1.1-3.1,1.8
		c-0.7-3.3-1.1-6.6-1.2-9.9c1.2-1.3,2.9-3,4.9-4.6c3.7-2.8,11-5.1,11-5.1s-6.5,0.3-9.8,1.9c-1.5,0.7-3.8,1.9-5.9,3.1
		c0.2-2.1,0.7-4.2,1.4-6.1c5.2-14.5,12.1-17,12.1-17s-4.7,0.3-10.4,6c-0.2-1.1-0.3-2.2-0.6-3.1c-0.1-0.4-0.2-0.7-0.3-1
		c-0.7-2.4-3.2-6.2-3.2-6.2s1.8,4.9,2,8c0.1,1.8,0,3.5-0.1,4.7c-1.7,2.1-3.4,4.6-5,7.8c-0.6,1.2-1.1,2.3-1.6,3.5c-1-1.5-2-3-2.9-3.9
		C29,43.9,22.8,41,22.8,41s5.2,4.7,7.1,8.2c1.3,2.3,2.2,4.7,2.6,6c-0.8,3.3-1.3,6.7-1.4,10c-1.1-0.5-2.1-1.1-2.9-1.4
		c-2.4-1.1-7.1-1.5-7.1-1.5s5.3,1.8,7.9,3.7c0.7,0.6,1.4,1.1,2,1.7c-0.2,9.4,1.6,17.4,2,19.3C33.6,90.3,29.3,92.2,29.3,92.2z"/>
	<path fill="none" stroke="#D9D8D7" stroke-width="0.5" stroke-miterlimit="10" stroke-dasharray="1" d="M59,55.8
		c-3.5,1.7-7,0.5-9.2-1.6c0.6,0,1.2-0.1,1.8-0.4c2.7-1.3,7.5-7.6,7.5-7.6s-6.9-2.3-10-0.6c-0.7,0.4-1.2,0.7-1.6,1.1
		c0.3-2.6,1.8-5,6.5-7.6c6.4-3.5,20.4,1.2,20.4,1.2S64.5,53.1,59,55.8z"/>
	<path fill="none" stroke="#D9D8D7" stroke-width="0.5" stroke-miterlimit="10" stroke-dasharray="1" d="M60.9,34.1
		c-2.7,2.4-6.1,2.2-8.5,0.9c0.5-0.1,1-0.4,1.5-0.8c2.1-1.8,4.7-8.6,4.7-8.6s-6.7-0.3-9,2c-0.5,0.5-0.9,0.9-1.2,1.4
		c-0.4-2.3,0.3-4.9,3.8-8.3c4.8-4.7,18.3-4.1,18.3-4.1S65.2,30.4,60.9,34.1z"/>
	<path fill="none" stroke="#D9D8D7" stroke-width="0.5" stroke-miterlimit="10" stroke-dasharray="1" d="M26.4,32.5
		c2.6,2.6,2.7,6.1,1.6,8.7c-0.2-0.5-0.5-1-0.9-1.5c-2-2-9.2-4.3-9.2-4.3s0.1,6.9,2.7,9.2c0.5,0.5,1,0.8,1.5,1.1
		c-2.4,0.6-5.1,0-8.8-3.3C8,37.8,7.7,23.8,7.7,23.8S22.3,28.4,26.4,32.5z"/>
	<path fill="none" stroke="#D9D8D7" stroke-width="0.5" stroke-miterlimit="10" stroke-dasharray="1" d="M23.7,55.5
		c3,1,4.3,3.7,4.3,6.1c-0.3-0.3-0.7-0.6-1.2-0.8c-2.3-0.8-8.6,0-8.6,0s2.6,5.2,5.4,6c0.6,0.2,1.1,0.3,1.5,0.3
		c-1.6,1.3-3.9,1.8-8,0.6C11.6,66.2,6.3,55.6,6.3,55.6S19.1,53.9,23.7,55.5z"/>
	<path fill="none" stroke="#D9D8D7" stroke-width="0.5" stroke-miterlimit="10" stroke-dasharray="1" d="M45.1,16.3
		c2.2,3.7,1.1,7.6-1,10.2c0-0.6-0.2-1.3-0.6-1.9c-1.7-2.9-9-7.6-9-7.6s-2,7.7,0.2,11.1c0.4,0.7,0.9,1.2,1.3,1.7
		c-2.8-0.1-5.7-1.6-8.8-6.4C23,16.5,26.9,0.9,26.9,0.9S41.8,10.5,45.1,16.3z"/>
	<path fill="none" stroke="#D9D8D7" stroke-width="0.5" stroke-miterlimit="10" stroke-dasharray="1" d="M53.5,71.3
		c-2.5,0.3-4.5-1.2-5.4-2.9c0.4,0.1,0.7,0.2,1.2,0.1c1.9-0.2,6.1-3.1,6.1-3.1s-3.9-2.9-6.1-2.5c-0.5,0.1-0.9,0.2-1.2,0.3
		c0.7-1.5,2.1-2.7,5.4-3.3C58,59.2,65.8,65,65.8,65S57.4,70.8,53.5,71.3z"/>
	<path fill="none" stroke="#D9D8D7" stroke-width="0.5" stroke-miterlimit="10" stroke-dasharray="1" d="M0.4,43
		c0,0,5.6-1.1,8.7,0.7c3.1,1.8,3.3,5.7,3.3,5.7S9.3,51.6,6.1,50S0.4,43,0.4,43z"/>
	<path fill="none" stroke="#D9D8D7" stroke-width="0.5" stroke-miterlimit="10" stroke-dasharray="1" d="M17.4,76
		c0,0,2.8-4.9,6.1-6.2C26.9,68.6,30,71,30,71s-0.3,3.8-3.6,5.2C23.1,77.6,17.4,76,17.4,76z"/>
	<path fill="none" stroke="#D9D8D7" stroke-width="0.5" stroke-miterlimit="10" stroke-dasharray="1" d="M76.2,29.5
		c0,0-2.1,3.8-4.7,4.8c-2.6,1-5-0.9-5-0.9s0.2-2.9,2.8-4C71.8,28.3,76.2,29.5,76.2,29.5z"/>
	<path fill="none" stroke="#D9D8D7" stroke-width="0.5" stroke-miterlimit="10" stroke-dasharray="1" d="M58,79c0,0-4.3,0.6-6.7-0.9
		C49,76.6,49,73.6,49,73.6s2.5-1.6,4.9-0.2C56.3,74.8,58,79,58,79z"/>
	<path fill="none" stroke="#D9D8D7" stroke-width="0.5" stroke-miterlimit="10" stroke-dasharray="1" d="M13.1,14.9
		c0,0,5,0.3,7.3,2.4c2.3,2.2,1.6,5.6,1.6,5.6s-3.1,1.3-5.5-0.8C14.1,20.1,13.1,14.9,13.1,14.9z"/>
	<path fill="none" stroke="#D9D8D7" stroke-width="0.5" stroke-miterlimit="10" stroke-dasharray="1" d="M70.9,54.9
		c0,0-2.2,3.9-4.9,4.8c-2.7,0.9-5.1-1-5.1-1s0.3-3,2.9-4C66.4,53.6,70.9,54.9,70.9,54.9z"/>
	<path fill="none" stroke="#D9D8D7" stroke-width="0.5" stroke-miterlimit="10" stroke-dasharray="1" d="M53,0.4
		c0,0,2.9,5.7,1.9,9.6c-0.9,3.9-5.1,5.3-5.1,5.3s-3.3-2.6-2.6-6.5C48,4.8,53,0.4,53,0.4z"/>
</g>
</svg>
