<?xml version="1.0" encoding="utf-8"?>
<!-- Generator: Adobe Illustrator 17.1.0, SVG Export Plug-In . SVG Version: 6.00 Build 0)  -->
<!DOCTYPE svg PUBLIC "-//W3C//DTD SVG 1.1//EN" "http://www.w3.org/Graphics/SVG/1.1/DTD/svg11.dtd">
<svg version="1.1" id="Layer_1" xmlns="http://www.w3.org/2000/svg" xmlns:xlink="http://www.w3.org/1999/xlink" x="0px" y="0px"
	 viewBox="0 0 15.4 13.4" enable-background="new 0 0 15.4 13.4" xml:space="preserve">
<g>
	<path fill="#BF4A39" d="M5.8,6.3c0-0.9,1.9-1.1,1.9-3.2c0-1.2-0.1-2-1.1-2.4c0-0.3,1.7-0.1,1.7-0.7C8.1,0,4.6,0,4.6,0
		S0.8,0.1,0.8,3.3s3.3,2.8,3.3,2.8s0,0.5,0,0.8s0.4,0.2,0.5,0.9C4.4,7.9,0,7.8,0,10.7c0,2.9,3.9,2.8,3.9,2.8s4.5,0.2,4.5-3.4
		C8.4,7.9,5.8,7.2,5.8,6.3z M2.6,3.5C2.2,2.2,2.7,1,3.6,0.7c0.9-0.3,2,0.6,2.3,1.9c0.4,1.3-0.1,2.5-1,2.8C3.9,5.6,2.9,4.8,2.6,3.5z
		 M4.5,12.5c-1.6,0.1-2.9-0.7-2.9-1.9C1.5,9.5,2.7,8.5,4.2,8.4c1.6-0.1,2.9,0.7,2.9,1.9C7.2,11.4,6,12.4,4.5,12.5z"/>
	<polygon fill="#BF4A39" points="15.4,6.3 15.4,7.1 12.8,7.1 12.8,9.7 12,9.7 12,7.1 9.4,7.1 9.4,6.3 12,6.3 12,3.7 12.8,3.7 
		12.8,6.3 	"/>
</g>
</svg>
