<?xml version="1.0" encoding="utf-8"?>
<!-- Generator: Adobe Illustrator 17.1.0, SVG Export Plug-In . SVG Version: 6.00 Build 0)  -->
<!DOCTYPE svg PUBLIC "-//W3C//DTD SVG 1.1//EN" "http://www.w3.org/Graphics/SVG/1.1/DTD/svg11.dtd">
<svg version="1.1" id="Layer_1" xmlns="http://www.w3.org/2000/svg" xmlns:xlink="http://www.w3.org/1999/xlink" x="0px" y="0px"
	 viewBox="0 0 15.5 15.5" enable-background="new 0 0 15.5 15.5" xml:space="preserve">
<g>
	<path fill="#385988" d="M13.6,0H1.8C0.8,0,0,0.8,0,1.8v11.8c0,1,0.8,1.8,1.8,1.8h11.8c1,0,1.8-0.8,1.8-1.8V1.8
		C15.5,0.8,14.6,0,13.6,0z M10.7,2.2c0-0.2,0.2-0.4,0.4-0.4h2.1c0.2,0,0.4,0.2,0.4,0.4v2.1c0,0.2-0.2,0.4-0.4,0.4h-2.1
		c-0.2,0-0.4-0.2-0.4-0.4V2.2z M7.8,4.8c1.6,0,3,1.3,3,3c0,1.6-1.3,3-3,3c-1.6,0-3-1.3-3-3C4.8,6.1,6.1,4.8,7.8,4.8z M13.7,13.2
		c0,0.2-0.2,0.4-0.4,0.4H2.2c-0.2,0-0.4-0.2-0.4-0.4V6.5h1.4C3.1,6.9,3,7.3,3,7.8c0,2.6,2.1,4.7,4.7,4.7c2.6,0,4.7-2.1,4.7-4.7
		c0-0.4-0.1-0.8-0.2-1.2h1.4V13.2z"/>
</g>
</svg>
