<?xml version="1.0" encoding="utf-8"?>
<!-- Generator: Adobe Illustrator 17.1.0, SVG Export Plug-In . SVG Version: 6.00 Build 0)  -->
<!DOCTYPE svg PUBLIC "-//W3C//DTD SVG 1.1//EN" "http://www.w3.org/Graphics/SVG/1.1/DTD/svg11.dtd">
<svg version="1.1" id="Layer_1" xmlns="http://www.w3.org/2000/svg" xmlns:xlink="http://www.w3.org/1999/xlink" x="0px" y="0px"
	 viewBox="0 0 16.2 13.1" enable-background="new 0 0 16.2 13.1" xml:space="preserve">
<g>
	<g>
		<defs>
			<rect id="SVGID_1_" x="0" y="0" width="16.2" height="13.1"/>
		</defs>
		<clipPath id="SVGID_2_">
			<use xlink:href="#SVGID_1_"  overflow="visible"/>
		</clipPath>
		<g clip-path="url(#SVGID_2_)">
			<defs>
				<rect id="SVGID_3_" x="0" y="0" width="16.1" height="13.1"/>
			</defs>
			<clipPath id="SVGID_4_">
				<use xlink:href="#SVGID_3_"  overflow="visible"/>
			</clipPath>
			<path clip-path="url(#SVGID_4_)" fill="#78A7D9" d="M5.1,13.1c-1.9,0-3.6-0.5-5.1-1.5c0.3,0,0.5,0,0.8,0c1.5,0,3-0.5,4.1-1.4
				c-1.4,0-2.7-1-3.1-2.3C2,8,2.2,8.1,2.4,8.1c0.3,0,0.6,0,0.9-0.1C1.8,7.6,0.6,6.3,0.6,4.7c0,0,0,0,0,0c0.4,0.2,1,0.4,1.5,0.4
				C1.3,4.5,0.7,3.5,0.7,2.3c0-0.6,0.2-1.2,0.4-1.7c1.6,2,4.1,3.3,6.8,3.5C7.9,3.9,7.9,3.6,7.9,3.4C7.9,1.5,9.3,0,11.2,0
				c1,0,1.8,0.4,2.4,1c0.8-0.1,1.5-0.4,2.1-0.8c-0.2,0.8-0.8,1.4-1.5,1.8c0.7-0.1,1.3-0.3,1.9-0.5c-0.4,0.7-1,1.2-1.7,1.7
				c0,0.1,0,0.3,0,0.4C14.5,8.1,11.2,13.1,5.1,13.1"/>
		</g>
	</g>
	<g>
		<defs>
			<rect id="SVGID_5_" x="0" y="0" width="16.2" height="13.1"/>
		</defs>
		<clipPath id="SVGID_6_">
			<use xlink:href="#SVGID_5_"  overflow="visible"/>
		</clipPath>
		<g clip-path="url(#SVGID_6_)">
			<defs>
				<rect id="SVGID_7_" x="0" y="0" width="16.1" height="13.1"/>
			</defs>
			<clipPath id="SVGID_8_">
				<use xlink:href="#SVGID_7_"  overflow="visible"/>
			</clipPath>
			<path clip-path="url(#SVGID_8_)" fill="#78A7D9" d="M5.1,13.1c-1.9,0-3.6-0.5-5.1-1.5c0.3,0,0.5,0,0.8,0c1.5,0,3-0.5,4.1-1.4
				c-1.4,0-2.7-1-3.1-2.3C2,8,2.2,8.1,2.4,8.1c0.3,0,0.6,0,0.9-0.1C1.8,7.6,0.6,6.3,0.6,4.7c0,0,0,0,0,0c0.4,0.2,1,0.4,1.5,0.4
				C1.3,4.5,0.7,3.5,0.7,2.3c0-0.6,0.2-1.2,0.4-1.7c1.6,2,4.1,3.3,6.8,3.5C7.9,3.9,7.9,3.6,7.9,3.4C7.9,1.5,9.3,0,11.2,0
				c1,0,1.8,0.4,2.4,1c0.8-0.1,1.5-0.4,2.1-0.8c-0.2,0.8-0.8,1.4-1.5,1.8c0.7-0.1,1.3-0.3,1.9-0.5c-0.4,0.7-1,1.2-1.7,1.7
				c0,0.1,0,0.3,0,0.4C14.5,8.1,11.2,13.1,5.1,13.1"/>
		</g>
	</g>
</g>
</svg>
