<?xml version="1.0" encoding="utf-8"?>
<!-- Generator: Adobe Illustrator 17.1.0, SVG Export Plug-In . SVG Version: 6.00 Build 0)  -->
<!DOCTYPE svg PUBLIC "-//W3C//DTD SVG 1.1//EN" "http://www.w3.org/Graphics/SVG/1.1/DTD/svg11.dtd">
<svg version="1.1" id="Layer_1" xmlns="http://www.w3.org/2000/svg" xmlns:xlink="http://www.w3.org/1999/xlink" x="0px" y="0px"
	 viewBox="0 0 15.4 15.4" enable-background="new 0 0 15.4 15.4" xml:space="preserve">
<g>
	<path fill="#AE272C" d="M7.7,0C3.4,0,0,3.4,0,7.7c0,3.1,1.9,5.9,4.6,7c0-0.5,0-1.2,0.1-1.8c0.1-0.6,1-4.2,1-4.2S5.5,8.3,5.5,7.6
		c0-1.1,0.7-2,1.5-2c0.7,0,1,0.5,1,1.2c0,0.7-0.4,1.8-0.7,2.7c-0.2,0.8,0.4,1.5,1.2,1.5c1.5,0,2.4-1.9,2.4-4.1
		c0-1.7-1.1-2.9-3.2-2.9C5.4,3.9,4,5.6,4,7.6c0,0.7,0.2,1.1,0.5,1.5c0.1,0.2,0.2,0.2,0.1,0.4c0,0.1-0.1,0.5-0.2,0.6
		c-0.1,0.2-0.2,0.3-0.4,0.2C3,9.9,2.5,8.7,2.5,7.4c0-2.2,1.8-4.8,5.5-4.8c2.9,0,4.9,2.1,4.9,4.4c0,3-1.7,5.3-4.1,5.3
		c-0.8,0-1.6-0.4-1.9-1c0,0-0.4,1.8-0.5,2.1c-0.2,0.6-0.5,1.2-0.8,1.6c0.7,0.2,1.4,0.3,2.2,0.3c4.2,0,7.7-3.4,7.7-7.7
		C15.4,3.4,11.9,0,7.7,0L7.7,0z"/>
</g>
</svg>
