<?xml version="1.0" encoding="utf-8"?>
<!-- Generator: Adobe Illustrator 17.1.0, SVG Export Plug-In . SVG Version: 6.00 Build 0)  -->
<!DOCTYPE svg PUBLIC "-//W3C//DTD SVG 1.1//EN" "http://www.w3.org/Graphics/SVG/1.1/DTD/svg11.dtd">
<svg version="1.1" id="Layer_1" xmlns="http://www.w3.org/2000/svg" xmlns:xlink="http://www.w3.org/1999/xlink" x="0px" y="0px"
	 viewBox="0 0 15.8 15.9" enable-background="new 0 0 15.8 15.9" xml:space="preserve">
<g>
	<path fill="#0065A1" d="M0,1.1C0,0.5,0.5,0,1.2,0h13.5c0.6,0,1.2,0.5,1.2,1.1v13.6c0,0.6-0.5,1.1-1.2,1.1H1.2
		c-0.6,0-1.2-0.5-1.2-1.1V1.1L0,1.1L0,1.1z"/>
	<path fill-rule="evenodd" clip-rule="evenodd" fill="#FFFFFF" d="M3.6,5.1c0.8,0,1.3-0.6,1.3-1.2c0-0.7-0.5-1.2-1.3-1.2
		c-0.8,0-1.3,0.5-1.3,1.2C2.3,4.6,2.8,5.1,3.6,5.1L3.6,5.1L3.6,5.1L3.6,5.1z M4.8,13.3V6.1H2.4v7.2H4.8L4.8,13.3L4.8,13.3z"/>
	<path fill-rule="evenodd" clip-rule="evenodd" fill="#FFFFFF" d="M6.1,13.3h2.4v-4c0-0.2,0-0.4,0.1-0.6c0.2-0.4,0.6-0.9,1.2-0.9
		c0.9,0,1.2,0.7,1.2,1.6v3.8h2.4V9.2C13.4,7,12.2,6,10.6,6C9.4,6,8.8,6.7,8.5,7.2h0v-1H6.1C6.1,6.8,6.1,13.3,6.1,13.3L6.1,13.3
		L6.1,13.3z"/>
</g>
</svg>
