<?xml version="1.0" encoding="utf-8"?>
<!-- Generator: Adobe Illustrator 17.1.0, SVG Export Plug-In . SVG Version: 6.00 Build 0)  -->
<!DOCTYPE svg PUBLIC "-//W3C//DTD SVG 1.1//EN" "http://www.w3.org/Graphics/SVG/1.1/DTD/svg11.dtd">
<svg version="1.1" id="Layer_1" xmlns="http://www.w3.org/2000/svg" xmlns:xlink="http://www.w3.org/1999/xlink" x="0px" y="0px"
	 viewBox="0 0 35.7 66" enable-background="new 0 0 35.7 66" xml:space="preserve">
<g>
	<path fill="#E87F4B" d="M8.2,66h27.5c0,0-3-0.4-7.5-4.1c-2.3-1.9-5.8-8.6-7.9-16.7c0.6-0.8,1.3-1.7,2.2-2.6c2-2,7-4,7-4
		s-4.4,0.3-6.8,1.4c-0.8,0.4-2,1.1-3.1,1.8c-0.7-3.3-1.1-6.6-1.2-9.9c1.2-1.3,2.9-3,4.9-4.6c3.7-2.8,11-5.1,11-5.1s-6.5,0.3-9.8,1.9
		c-1.5,0.7-3.8,1.9-5.9,3.1c0.2-2.1,0.7-4.2,1.4-6.1C25.1,6.8,32,4.4,32,4.4s-4.7,0.3-10.4,6c-0.2-1.1-0.3-2.2-0.6-3.1
		c-0.1-0.4-0.2-0.7-0.3-1C20.2,3.8,17.6,0,17.6,0s1.8,4.9,2,8c0.1,1.8,0,3.5-0.1,4.7c-1.7,2.1-3.4,4.6-5,7.8
		c-0.6,1.2-1.1,2.3-1.6,3.5c-1-1.5-2-3-2.9-3.9c-2.2-2.4-8.4-5.3-8.4-5.3s5.2,4.7,7.1,8.2c1.3,2.3,2.2,4.7,2.6,6
		c-0.8,3.3-1.3,6.7-1.4,10c-1.1-0.5-2.1-1.1-2.9-1.4C4.7,36.6,0,36.1,0,36.1s5.3,1.8,7.9,3.7c0.7,0.6,1.4,1.1,2,1.7
		c-0.2,9.4,1.6,17.4,2,19.3C12.5,64,8.2,66,8.2,66z"/>
</g>
</svg>
