<?xml version="1.0" encoding="utf-8"?>
<!-- Generator: Adobe Illustrator 17.1.0, SVG Export Plug-In . SVG Version: 6.00 Build 0)  -->
<!DOCTYPE svg PUBLIC "-//W3C//DTD SVG 1.1//EN" "http://www.w3.org/Graphics/SVG/1.1/DTD/svg11.dtd">
<svg version="1.1" id="Layer_1" xmlns="http://www.w3.org/2000/svg" xmlns:xlink="http://www.w3.org/1999/xlink" x="0px" y="0px"
	 viewBox="0 0 22.1 17.7" enable-background="new 0 0 22.1 17.7" xml:space="preserve">
<g>
	<path fill="#E9E9E9" d="M5.3,3.2H3.1v2.5H2.2V3.2H0V2.4h2.2V0h0.9v2.4h2.2V3.2z"/>
	<g id="add_to_eekoh_icon_2_">
		<g>
			<path fill="#E9E9E9" d="M15.5,8.3c-0.7,0.4-0.9,0.7-1,1.1c0.1-0.1,0.1-0.1,0.2-0.2c0.5-0.3,1.5,0.1,1.5,0.1s-0.7,0.9-1.1,1.1
				c-0.1,0-0.2,0.1-0.3,0.1c0.3,0.3,0.8,0.5,1.4,0.2c0.8-0.4,2.3-2.3,2.3-2.3S16.5,7.8,15.5,8.3z"/>
			<path fill="#E9E9E9" d="M16.6,7.6C17.2,7,18,5,18,5s-2-0.1-2.7,0.6c-0.5,0.5-0.6,0.9-0.6,1.2c0-0.1,0.1-0.1,0.2-0.2
				c0.4-0.3,1.3-0.3,1.3-0.3s-0.4,1-0.7,1.3c-0.1,0.1-0.1,0.1-0.2,0.1C15.7,7.9,16.2,7.9,16.6,7.6z"/>
			<path fill="#E9E9E9" d="M8.7,6c0,0,0,2.1,0.8,2.8c0.6,0.5,1,0.6,1.3,0.5c-0.1,0-0.1-0.1-0.2-0.2c-0.4-0.3-0.4-1.4-0.4-1.4
				s1.1,0.3,1.4,0.6c0.1,0.1,0.1,0.1,0.1,0.2c0.2-0.4,0.2-0.9-0.2-1.3C10.8,6.7,8.7,6,8.7,6z"/>
			<path fill="#E9E9E9" d="M8.5,10.7c0,0,0.8,1.6,1.6,1.8c0.6,0.2,0.9,0.1,1.2-0.1c-0.1,0-0.1,0-0.2,0c-0.4-0.1-0.8-0.9-0.8-0.9
				s0.9-0.1,1.3,0c0.1,0,0.1,0.1,0.2,0.1c0-0.4-0.2-0.8-0.6-0.9C10.4,10.5,8.5,10.7,8.5,10.7z"/>
			<path fill="#E9E9E9" d="M11.5,2.6c0,0-0.6,2.3,0.1,3.3c0.5,0.7,0.9,0.9,1.3,1c-0.1-0.1-0.1-0.1-0.2-0.3c-0.3-0.5,0-1.6,0-1.6
				s1.1,0.7,1.3,1.1c0.1,0.1,0.1,0.2,0.1,0.3c0.3-0.4,0.5-1,0.1-1.5C13.7,4.1,11.5,2.6,11.5,2.6z"/>
			<path fill="#E9E9E9" d="M15.4,11.4c-0.5,0.1-0.7,0.3-0.8,0.5c0,0,0.1,0,0.2,0c0.3-0.1,0.9,0.4,0.9,0.4s-0.6,0.4-0.9,0.5
				c-0.1,0-0.1,0-0.2,0c0.1,0.3,0.4,0.5,0.8,0.4c0.6-0.1,1.8-0.9,1.8-0.9S16.1,11.3,15.4,11.4z"/>
			<path fill="#E9E9E9" d="M9.4,9.8c0,0,0-0.6-0.5-0.8C8.4,8.7,7.6,8.9,7.6,8.9s0.4,0.8,0.8,1C8.9,10.1,9.4,9.8,9.4,9.8z"/>
			<path fill="#E9E9E9" d="M10.1,13.8c0,0,0.8,0.2,1.3,0C11.9,13.6,12,13,12,13s-0.5-0.4-1-0.2C10.5,13,10.1,13.8,10.1,13.8z"/>
			<path fill="#E9E9E9" d="M17.4,7.4c0,0,0.4,0.3,0.7,0.1c0.4-0.1,0.7-0.7,0.7-0.7s-0.7-0.2-1,0C17.4,7,17.4,7.4,17.4,7.4z"/>
			<path fill="#E9E9E9" d="M15.5,13.4c-0.4-0.2-0.7,0-0.7,0s0,0.4,0.3,0.7c0.3,0.2,1,0.1,1,0.1S15.9,13.6,15.5,13.4z"/>
			<path fill="#E9E9E9" d="M10.8,5.9c0,0,0.1-0.5-0.2-0.8c-0.3-0.3-1.1-0.4-1.1-0.4S9.6,5.5,10,5.8C10.3,6.1,10.8,5.9,10.8,5.9z"/>
			<path fill="#E9E9E9" d="M17,10.6c-0.4,0.2-0.4,0.6-0.4,0.6s0.4,0.3,0.8,0.1c0.4-0.1,0.7-0.7,0.7-0.7S17.4,10.4,17,10.6z"/>
			<path fill="#E9E9E9" d="M14.9,4.8c0,0,0.6-0.2,0.8-0.8c0.1-0.6-0.3-1.4-0.3-1.4s-0.7,0.6-0.9,1.2C14.4,4.4,14.9,4.8,14.9,4.8z"/>
			<path fill="#E9E9E9" d="M13.2,0C8.3,0,4.3,4,4.3,8.9c0,4.9,4,8.9,8.9,8.9c4.9,0,8.9-4,8.9-8.9C22.1,4,18.1,0,13.2,0z M15.2,15.8
				c-0.1-0.1-0.2-0.1-0.3-0.2c-0.3-0.3-0.9-1.3-1.2-2.5c0.1-0.1,0.2-0.3,0.3-0.4c0.3-0.3,1-0.6,1-0.6s-0.6,0-1,0.2
				c-0.1,0.1-0.3,0.2-0.5,0.3c-0.1-0.5-0.2-1-0.2-1.5c0.2-0.2,0.4-0.4,0.7-0.7c0.5-0.4,1.6-0.8,1.6-0.8s-1,0-1.5,0.3
				c-0.2,0.1-0.6,0.3-0.9,0.5c0-0.3,0.1-0.6,0.2-0.9C14.4,7.4,15.4,7,15.4,7s-0.7,0-1.5,0.9c0-0.2-0.1-0.3-0.1-0.5
				c0-0.1,0-0.1,0-0.2c-0.1-0.4-0.5-0.9-0.5-0.9s0.3,0.7,0.3,1.2c0,0.3,0,0.5,0,0.7c-0.2,0.3-0.5,0.7-0.7,1.1
				c-0.1,0.2-0.2,0.3-0.2,0.5c-0.1-0.2-0.3-0.4-0.4-0.6c-0.3-0.4-1.2-0.8-1.2-0.8s0.8,0.7,1.1,1.2c0.2,0.3,0.3,0.7,0.4,0.9
				c-0.1,0.5-0.2,1-0.2,1.5C12,12.1,11.8,12,11.7,12c-0.4-0.2-1.1-0.2-1.1-0.2s0.8,0.3,1.2,0.5c0.1,0.1,0.2,0.2,0.3,0.3
				c0,1.4,0.2,2.6,0.3,2.9c0.1,0.3-0.1,0.5-0.3,0.6C8.7,15.5,6,12.5,6,8.9c0-4,3.2-7.2,7.2-7.2c4,0,7.2,3.2,7.2,7.2
				C20.4,12.2,18.2,14.9,15.2,15.8z"/>
		</g>
	</g>
</g>
</svg>
