<?xml version="1.0" encoding="utf-8"?>
<!-- Generator: Adobe Illustrator 17.1.0, SVG Export Plug-In . SVG Version: 6.00 Build 0)  -->
<!DOCTYPE svg PUBLIC "-//W3C//DTD SVG 1.1//EN" "http://www.w3.org/Graphics/SVG/1.1/DTD/svg11.dtd">
<svg version="1.1" id="Layer_1" xmlns="http://www.w3.org/2000/svg" xmlns:xlink="http://www.w3.org/1999/xlink" x="0px" y="0px"
	 viewBox="0 0 46.9 7" enable-background="new 0 0 46.9 7" xml:space="preserve">
<g>
	<g>
		<path fill="#E9E9E9" d="M5.3,3.2H3.1v2.5H2.2V3.2H0V2.4h2.2V0h0.9v2.4h2.2V3.2z"/>
		<path fill="#E9E9E9" d="M13.3,7c-1,0-1.8-0.3-2.5-1c-0.7-0.6-1-1.5-1-2.5c0-1,0.3-1.8,1-2.5s1.5-1,2.5-1c1.2,0,2.1,0.5,2.7,1.5
			l-1,0.5c-0.2-0.3-0.4-0.5-0.7-0.7c-0.3-0.2-0.6-0.3-1-0.3c-0.7,0-1.2,0.2-1.6,0.7c-0.4,0.5-0.7,1-0.7,1.7c0,0.7,0.2,1.3,0.7,1.7
			c0.4,0.5,1,0.7,1.6,0.7c0.3,0,0.7-0.1,1-0.3C14.6,5.5,14.8,5.3,15,5l1,0.5C15.3,6.5,14.4,7,13.3,7z"/>
		<path fill="#E9E9E9" d="M20.8,6.2C20.4,6.7,19.8,7,19,7c-0.7,0-1.3-0.2-1.8-0.7c-0.5-0.5-0.7-1.1-0.7-1.8c0-0.7,0.2-1.3,0.7-1.8
			c0.5-0.5,1.1-0.7,1.8-0.7c0.7,0,1.3,0.2,1.8,0.7s0.7,1.1,0.7,1.8C21.5,5.2,21.3,5.8,20.8,6.2z M19,6.1c0.4,0,0.8-0.2,1-0.5
			c0.2-0.3,0.4-0.7,0.4-1.1c0-0.4-0.1-0.8-0.4-1.1c-0.2-0.3-0.6-0.5-1-0.5c-0.4,0-0.8,0.2-1,0.5S17.7,4,17.7,4.4
			c0,0.5,0.1,0.8,0.4,1.1S18.6,6.1,19,6.1z"/>
		<path fill="#E9E9E9" d="M26.9,6.9h-1v-3c0-0.4-0.1-0.6-0.3-0.8s-0.4-0.2-0.7-0.2c-0.2,0-0.5,0.1-0.7,0.2c-0.2,0.1-0.4,0.3-0.5,0.5
			v3.4h-1.1V2h1.1v0.6c0.2-0.2,0.4-0.4,0.7-0.5c0.3-0.1,0.6-0.2,1-0.2c0.5,0,0.9,0.1,1.2,0.4c0.3,0.3,0.4,0.6,0.4,1.1V6.9z"/>
		<path fill="#E9E9E9" d="M32.6,6.9h-1v-3c0-0.4-0.1-0.6-0.3-0.8s-0.4-0.2-0.7-0.2c-0.2,0-0.5,0.1-0.7,0.2c-0.2,0.1-0.4,0.3-0.5,0.5
			v3.4h-1.1V2h1.1v0.6c0.2-0.2,0.4-0.4,0.7-0.5c0.3-0.1,0.6-0.2,1-0.2c0.5,0,0.9,0.1,1.2,0.4c0.3,0.3,0.4,0.6,0.4,1.1V6.9z"/>
		<path fill="#E9E9E9" d="M36.2,7c-0.7,0-1.3-0.2-1.8-0.7c-0.5-0.5-0.7-1.1-0.7-1.8c0-0.7,0.2-1.3,0.7-1.8c0.5-0.5,1-0.7,1.8-0.7
			c0.7,0,1.3,0.2,1.7,0.7c0.4,0.5,0.7,1.1,0.7,1.9v0.3h-3.7c0,0.4,0.2,0.7,0.5,0.9c0.3,0.3,0.6,0.4,1.1,0.4c0.6,0,1-0.2,1.4-0.5
			l0.5,0.7C37.7,6.7,37,7,36.2,7z M37.5,4c0-0.3-0.1-0.6-0.4-0.9c-0.2-0.3-0.6-0.4-1-0.4c-0.4,0-0.7,0.1-1,0.4
			c-0.2,0.3-0.4,0.6-0.4,0.9H37.5z"/>
		<path fill="#E9E9E9" d="M41.7,7c-0.7,0-1.3-0.2-1.8-0.7s-0.7-1.1-0.7-1.8s0.2-1.3,0.7-1.8s1.1-0.7,1.8-0.7c0.8,0,1.4,0.3,1.9,0.9
			l-0.7,0.6c-0.3-0.4-0.6-0.6-1.1-0.6c-0.4,0-0.8,0.1-1.1,0.4c-0.3,0.3-0.4,0.7-0.4,1.2s0.1,0.9,0.4,1.2c0.3,0.3,0.6,0.4,1.1,0.4
			c0.5,0,0.8-0.2,1.1-0.6l0.7,0.6C43.1,6.7,42.5,7,41.7,7z"/>
		<path fill="#E9E9E9" d="M46,7c-0.8,0-1.2-0.4-1.2-1.2V2.9h-0.8V2h0.8V0.7h1V2h1v0.9h-1v2.5c0,0.2,0,0.3,0.1,0.4
			C46,6,46.1,6.1,46.2,6.1c0.2,0,0.4-0.1,0.5-0.2l0.2,0.8C46.7,6.9,46.4,7,46,7z"/>
	</g>
</g>
</svg>
