<?xml version="1.0" encoding="utf-8"?>
<!-- Generator: Adobe Illustrator 17.1.0, SVG Export Plug-In . SVG Version: 6.00 Build 0)  -->
<!DOCTYPE svg PUBLIC "-//W3C//DTD SVG 1.1//EN" "http://www.w3.org/Graphics/SVG/1.1/DTD/svg11.dtd">
<svg version="1.1" id="Layer_1" xmlns="http://www.w3.org/2000/svg" xmlns:xlink="http://www.w3.org/1999/xlink" x="0px" y="0px"
	 viewBox="0 0 11.6 11" enable-background="new 0 0 11.6 11" xml:space="preserve">
<g>
	<path fill-rule="evenodd" clip-rule="evenodd" fill="#505152" stroke="#929090" stroke-width="0.375" stroke-miterlimit="10" d="
		M6,8.5c0.4-0.4,0.6-0.9,0.8-1.4c0,0,0.1,0,0.1,0C7.3,7,7.8,5.8,7.7,5.4C7.6,5.2,7.4,5.2,7.3,5.3c0.1-0.4,0.1-0.7,0.1-0.9
		c0-0.1,0-0.2,0-0.3c0-1.4-1.2-2.4-2.6-2.4c-1.4,0-2.6,0.9-2.6,2.4c0,0.1,0,0.2,0,0.3c0,0.2,0,0.5,0.1,0.9C2.2,5.2,2,5.2,2,5.4
		C1.8,5.8,2.4,7,2.7,7.1c0,0,0.1,0,0.1,0C3,7.6,3.3,8.1,3.6,8.5C2.2,8.8,1,9.7,0.3,10.8h9C8.7,9.7,7.5,8.8,6,8.5z"/>
	<g>
		<circle fill="#96C93F" stroke="#FFFFFF" stroke-width="0.375" stroke-miterlimit="10" cx="8.3" cy="3.3" r="3.1"/>
		<g>
			<line fill="none" stroke="#FFFFFF" stroke-width="0.375" stroke-miterlimit="10" x1="6.5" y1="2.1" x2="10.2" y2="2.1"/>
			<line fill="none" stroke="#FFFFFF" stroke-width="0.375" stroke-miterlimit="10" x1="6.1" y1="3.3" x2="10.6" y2="3.3"/>
			<line fill="none" stroke="#FFFFFF" stroke-width="0.375" stroke-miterlimit="10" x1="6.5" y1="4.4" x2="10.2" y2="4.4"/>
		</g>
	</g>
</g>
</svg>
