<?xml version="1.0" encoding="utf-8"?>
<!DOCTYPE svg PUBLIC "-//W3C//DTD SVG 1.1//EN" "http://www.w3.org/Graphics/SVG/1.1/DTD/svg11.dtd">
<svg version="1.1" id="Layer_1" xmlns="http://www.w3.org/2000/svg" xmlns:xlink="http://www.w3.org/1999/xlink" x="0px" y="0px"
	 width="25.4px" height="32.3px" viewBox="0 0 25.4 32.3" style="" xml:space="preserve">
<style type="text/css">
<![CDATA[
	.st0{display:none;fill:#FFFFFF;}
	.st3{display:none;fill:none;stroke:#FFFFFF;stroke-width:0.5;stroke-miterlimit:10;}
	.st5{display:none;fill:#C46728;}
	.st4{font-size:11;}
	.st1{fill:#B6B7B7;}
	.st2{font-family:'ProximaNova-Bold';}
]]>
</style>
<path class="st1" d="M8.5,22.2c1.7,0,5.1-4.2,5.1-7.3c0-3.1-4.7-11.2-5.6-11.2s-5.5,8.1-5.5,11.2c0,3.1,3.3,7.3,5.1,7.3H8.5z"/>
<path class="st1" d="M15.7,17.3c-0.9-1.6-4.2,8.3-7.7,8.3c-3.5,0-6.8-9.8-7.7-8.3c-1.4,2.5,1.6,13.5,7.7,15c0,0,0,0,0,0c0,0,0,0,0,0
	C14.1,30.7,17.1,19.8,15.7,17.3"/>
<path id="circle" class="st5" d="M25.1,8.5c0,4.6-3.7,8.2-8.2,8.2c-4.6,0-8.2-3.7-8.2-8.2c0-4.6,3.7-8.2,8.2-8.2
	C21.4,0.2,25.1,3.9,25.1,8.5"/>
<circle id="border" class="st3" cx="16.9" cy="8.5" r="8.2"/>
<text transform="matrix(1 0 0 1 11.4561 12.2593)" class="st0 st2 st4">12</text>
</svg>
