<?xml version="1.0" encoding="utf-8"?>
<!DOCTYPE svg PUBLIC "-//W3C//DTD SVG 1.1//EN" "http://www.w3.org/Graphics/SVG/1.1/DTD/svg11.dtd">
<svg version="1.1" id="Layer_1" xmlns="http://www.w3.org/2000/svg" xmlns:xlink="http://www.w3.org/1999/xlink" x="0px" y="0px"
	 width="23.1px" height="19.2px" viewBox="0 0 23.1 19.2" style="fill:#B6B7B7;" xml:space="preserve">
<path d="M7.9,0C3.6,0,0,3.5,0,7.8c0,4.3,3.6,7.8,7.9,7.8c4.4,0,7.9-3.5,7.9-7.8C15.9,3.5,12.3,0,7.9,0 M8,13.1
	c-2.9,0-5.3-2.4-5.3-5.3c0-2.9,2.4-5.3,5.3-5.3s5.3,2.4,5.3,5.3C13.3,10.7,11,13.1,8,13.1 M22.1,14.8c-2.5-2-5.4-3.2-5.9-3.3
	c0,0-0.7,1.7-2.1,3c0,0,2.4,3.1,5.4,4.5C22.2,20.2,24.5,16.5,22.1,14.8"/>
</svg>
