<?xml version="1.0" encoding="utf-8"?>
<!-- Generator: Adobe Illustrator 17.0.0, SVG Export Plug-In . SVG Version: 6.00 Build 0)  -->
<!DOCTYPE svg PUBLIC "-//W3C//DTD SVG 1.1//EN" "http://www.w3.org/Graphics/SVG/1.1/DTD/svg11.dtd">
<svg version="1.1" xmlns="http://www.w3.org/2000/svg" xmlns:xlink="http://www.w3.org/1999/xlink" x="0px" y="0px" width="38.9px"
	 height="48.8px" viewBox="0 0 38.9 48.8" style="" xml:space="preserve" class="tree">
<style type="text/css">
  .tree { transform: scale(5.0) }
	.st0{filter:url(#Adobe_OpacityMaskFilter);}
	.st1{fill:url(#SVGID_1_);}
	.st2{opacity:0.4;mask:url(#stump_1_);}
	.st3{fill:#FFCB26;}
	.st4{fill:#444445;}
	.st5{fill:#CD6128;}
	.st6{fill:#655AA7;}
	.st7{fill:#5583C3;}
	.st8{fill:#E97F4B;}
	.st9{fill:#D65154;}
	.st10{fill:#B9D651;}
	.st11{fill:#CFCFCF;}
</style>
<g id="Trunk">
	<path id="trunk" d="M14.8,47.1h14.1c0,0-1.5-0.2-3.8-2.1c-1.2-1-3-4.4-4.1-8.5c0.3-0.4,0.7-0.9,1.1-1.3c1-1,3.6-2,3.6-2
		s-2.2,0.2-3.5,0.7c-0.4,0.2-1,0.6-1.6,0.9c-0.4-1.7-0.6-3.4-0.6-5.1c0.6-0.7,1.5-1.6,2.5-2.3c1.9-1.5,5.6-2.6,5.6-2.6s-3.3,0.1-5,1
		c-0.8,0.4-1.9,1-3,1.6c0.1-1.1,0.3-2.1,0.7-3.1c2.7-7.5,6.2-8.7,6.2-8.7s-2.4,0.1-5.3,3.1c-0.1-0.6-0.2-1.1-0.3-1.6
		c0-0.2-0.1-0.4-0.1-0.5c-0.3-1.2-1.7-3.2-1.7-3.2s0.9,2.5,1,4.1c0.1,0.9,0,1.8-0.1,2.4c-0.9,1.1-1.7,2.3-2.6,4
		c-0.3,0.6-0.6,1.2-0.8,1.8c-0.5-0.8-1-1.5-1.5-2c-1.1-1.2-4.3-2.7-4.3-2.7s2.6,2.4,3.6,4.2c0.7,1.2,1.1,2.4,1.3,3.1
		c-0.4,1.7-0.6,3.4-0.7,5.1c-0.5-0.3-1.1-0.5-1.5-0.7c-1.2-0.5-3.7-0.8-3.7-0.8s2.7,0.9,4,1.9c0.4,0.3,0.7,0.6,1,0.9
		c-0.1,4.8,0.8,8.9,1,9.9C17,46,14.8,47.1,14.8,47.1z"/>
</g>
<g id="Stump">
	<defs>
		<filter id="Adobe_OpacityMaskFilter" filterUnits="userSpaceOnUse" x="9.3" y="44.9" width="25.8" height="3.9">
			<feColorMatrix  type="matrix" values="1 0 0 0 0  0 1 0 0 0  0 0 1 0 0  0 0 0 1 0"/>
		</filter>
	</defs>
	<mask maskUnits="userSpaceOnUse" x="9.3" y="44.9" width="25.8" height="3.9" id="stump_1_">
		<g class="st0">
			
				<radialGradient id="SVGID_1_" cx="1219.9015" cy="12156.2676" r="28.0855" gradientTransform="matrix(0.4665 0 0 5.000000e-02 -546.7867 -560.8814)" gradientUnits="userSpaceOnUse">
				<stop  offset="7.142900e-02" style="stop-color:#FFFFFF"/>
				<stop  offset="0.522" style="stop-color:#C2C4C6"/>
				<stop  offset="0.7121" style="stop-color:#7F8083"/>
				<stop  offset="0.8827" style="stop-color:#434345"/>
				<stop  offset="0.9615" style="stop-color:#000000"/>
			</radialGradient>
			<ellipse class="st1" cx="22.3" cy="46.9" rx="13.1" ry="1.4"/>
		</g>
	</mask>
	<polyline id="stump" class="st2" points="9.3,48.8 9.3,44.9 35.2,44.9 35.2,48.8 	"/>
</g>
<g id="Outer">
	<path id="yellow_1_" class="st3" d="M0,21.8c0,0,2.9-0.5,4.5,0.4c1.6,0.9,1.7,2.9,1.7,2.9s-1.6,1.1-3.2,0.3C1.3,24.6,0,21.8,0,21.8
		z"/>
	<path id="black_1_" class="st4" d="M8.7,38.7c0,0,1.4-2.5,3.1-3.2c1.7-0.6,3.3,0.6,3.3,0.6s-0.2,1.9-1.8,2.7
		C11.6,39.5,8.7,38.7,8.7,38.7z"/>
	<path id="yellow" class="st3" d="M38.9,14.9c0,0-1.1,2-2.4,2.4c-1.3,0.5-2.6-0.5-2.6-0.5s0.1-1.5,1.4-2
		C36.6,14.3,38.9,14.9,38.9,14.9z"/>
	<path id="orange2_1_" class="st5" d="M29.5,40.3c0,0-2.2,0.3-3.4-0.5c-1.2-0.8-1.2-2.3-1.2-2.3s1.3-0.8,2.5-0.1
		C28.6,38.1,29.5,40.3,29.5,40.3z"/>
	<path id="orange2_2_" class="st5" d="M6.5,7.4c0,0,2.6,0.1,3.8,1.3c1.2,1.1,0.8,2.9,0.8,2.9s-1.6,0.6-2.8-0.4
		C7,10.1,6.5,7.4,6.5,7.4z"/>
	<path id="black" class="st4" d="M36.1,27.9c0,0-1.2,2-2.5,2.5c-1.4,0.5-2.6-0.5-2.6-0.5s0.1-1.5,1.5-2.1
		C33.8,27.3,36.1,27.9,36.1,27.9z"/>
	<path id="orange2" class="st5" d="M27,0c0,0,1.5,2.9,1,4.9c-0.5,2-2.6,2.7-2.6,2.7S23.6,6.3,24,4.2C24.4,2.2,27,0,27,0z"/>
</g>
<g id="Main">
	<path id="purple" class="st6" d="M30,28.4c-1.8,0.9-3.6,0.3-4.7-0.8c0.3,0,0.6-0.1,0.9-0.2c1.4-0.7,3.9-3.9,3.9-3.9
		s-3.5-1.2-5.1-0.3c-0.3,0.2-0.6,0.4-0.8,0.5c0.2-1.3,0.9-2.6,3.3-3.9c3.3-1.8,10.4,0.6,10.4,0.6S32.8,27,30,28.4z"/>
	<path id="blue" class="st7" d="M31,17.3c-1.4,1.2-3.1,1.1-4.4,0.5c0.3-0.1,0.5-0.2,0.8-0.4c1.1-0.9,2.4-4.4,2.4-4.4s-3.4-0.2-4.6,1
		c-0.3,0.2-0.4,0.5-0.6,0.7c-0.2-1.2,0.2-2.5,1.9-4.3C29,8,35.9,8.3,35.9,8.3S33.2,15.4,31,17.3z"/>
	<path id="orange" class="st8" d="M13.3,16.4c1.4,1.3,1.4,3.1,0.8,4.5c-0.1-0.3-0.2-0.5-0.5-0.7c-1-1-4.7-2.2-4.7-2.2
		s0.1,3.5,1.4,4.7c0.3,0.2,0.5,0.4,0.8,0.6c-1.2,0.3-2.6,0-4.5-1.7C3.9,19.2,3.7,12,3.7,12S11.2,14.4,13.3,16.4z"/>
	<path id="red" class="st9" d="M12,28.2c1.5,0.5,2.2,1.9,2.2,3.1c-0.2-0.2-0.4-0.3-0.6-0.4c-1.2-0.4-4.4,0-4.4,0s1.3,2.7,2.7,3.1
		c0.3,0.1,0.6,0.1,0.8,0.2c-0.8,0.7-2,0.9-4.1,0.3C5.7,33.7,3,28.3,3,28.3S9.6,27.4,12,28.2z"/>
	<path id="green" class="st10" d="M22.9,8.2c1.1,1.9,0.6,3.9-0.5,5.2c0-0.3-0.1-0.7-0.3-1c-0.9-1.5-4.6-3.9-4.6-3.9s-1,4,0.1,5.7
		c0.2,0.4,0.5,0.6,0.7,0.9c-1.4-0.1-2.9-0.8-4.5-3.3c-2.2-3.5-0.2-11.5-0.2-11.5S21.2,5.2,22.9,8.2z"/>
	<path id="gray" class="st11" d="M27.2,36.3c-1.3,0.2-2.3-0.6-2.8-1.5c0.2,0.1,0.4,0.1,0.6,0.1c1-0.1,3.1-1.6,3.1-1.6
		s-2-1.5-3.1-1.3c-0.2,0-0.4,0.1-0.6,0.2c0.3-0.8,1.1-1.4,2.8-1.7c2.4-0.4,6.4,2.6,6.4,2.6S29.2,36.1,27.2,36.3z"/>
</g>
</svg>

