<?xml version="1.0" encoding="utf-8"?>
<!-- Generator: Adobe Illustrator 16.0.0, SVG Export Plug-In . SVG Version: 6.00 Build 0)  -->
<!DOCTYPE svg PUBLIC "-//W3C//DTD SVG 1.1//EN" "http://www.w3.org/Graphics/SVG/1.1/DTD/svg11.dtd">
<svg version="1.1" id="Layer_1" xmlns="http://www.w3.org/2000/svg" xmlns:xlink="http://www.w3.org/1999/xlink" x="0px" y="0px"
	 width="28.1px" height="32.4px" viewBox="0 0 28.1 32.4" style="enable-background:new 0 0 28.1 32.4;" xml:space="preserve">
<style type="text/css">
<![CDATA[
	.st0{display:none;fill:#FFCC27;}
	.st1{display:none;fill:#FFFFFF;}
	.st2{fill:#B6B7B7;}
	.st3{font-family:'ProximaNova-Bold';}
	.st4{display:none;fill:none;stroke:#FFFFFF;stroke-width:0.5;stroke-miterlimit:10;}
	.st5{font-size:11;}
	.st6{fill:none;stroke:#B6B7B7;stroke-width:0.237;stroke-miterlimit:10;}
	.st7{fill:none;stroke:#FFFFFF;stroke-width:0.178;stroke-miterlimit:10;}
]]>
</style>
<path class="st6" d="M1.8,27.2c-1-0.6-1.6-1.3-1.7-2.2c-0.1-0.8,0.2-1.4,0.5-1.9l6.3-11c0.6-1,2.2-2.3,4.3-3.9
	c0.4-0.3,0.8-0.6,1-0.8c1.7-1.4,3-1,3.8-0.5l4.1,2.3c1.7,0.9,1.7,2.4,1.5,3.6c0,0.3-0.1,0.8-0.2,1.3c-0.3,2.6-0.6,4.7-1.2,5.7
	l-6.3,11c-0.3,0.5-0.7,1-1.3,1.4c-0.8,0.4-1.7,0.3-2.8-0.3L1.8,27.2z"/>
<path class="st7" d="M17,11.8C17,12,16.7,12.1,16.5,12l-1.1-0.4C15.1,11.5,15,11.3,15,11l2.6-6.8C17.7,4,18,3.9,18.2,4l1.1,0.4
	c0.2,0.1,0.4,0.3,0.3,0.6L17,11.8z"/>
<path class="st2" d="M19.5,10.3c-0.5-0.3-1-0.6-1-0.6l-0.6-0.3L19.6,5c0.1-0.2,0-0.5-0.3-0.6L18.2,4c-0.2-0.1-0.5,0-0.6,0.3
	l-1.5,4.1c-0.2-0.1-0.4-0.2-0.6-0.4c-0.5-0.3-1.2-0.6-2.5,0.4c-1.3,1-4.4,3.2-5,4.4S2,23,1.7,23.7c-0.4,0.7-0.8,1.6,0.7,2.5l8.1,4.6
	c1.5,0.9,2.1,0,2.5-0.6c0.4-0.7,5.6-9.8,6.3-11c0.6-1.1,1-5,1.2-6.6C20.7,11,20.1,10.6,19.5,10.3z M12,25.6l-0.6-0.4
	c-0.3,0.4-0.6,0.6-0.9,0.7c-0.3,0.1-0.8,0.1-1.2-0.1L9.5,25c0.4,0.1,0.7,0.1,0.9,0c0.2-0.1,0.4-0.2,0.5-0.4c0.1-0.2,0.2-0.5,0.1-0.7
	c-0.1-0.2-0.2-0.4-0.4-0.5c-0.2-0.1-0.4-0.1-0.6-0.1c-0.1,0-0.2,0.1-0.4,0.2c-0.1,0.1-0.3,0.2-0.5,0.3c-0.4,0.3-0.7,0.5-0.9,0.5
	c-0.3,0.1-0.7,0-1-0.2C7,24.1,6.9,24,6.8,23.8c-0.1-0.1-0.2-0.3-0.2-0.4c-0.1-0.1-0.1-0.3-0.1-0.5c0-0.2,0-0.4,0.1-0.5l-0.6-0.3
	l0.3-0.5l0.6,0.3c0.2-0.2,0.4-0.4,0.6-0.5c0.2-0.1,0.5-0.1,0.8-0.1l0,0.8c-0.4,0-0.7,0.1-0.9,0.4c-0.1,0.2-0.1,0.4-0.1,0.5
	c0,0.2,0.1,0.3,0.3,0.4c0.1,0.1,0.3,0.1,0.4,0.1c0.1,0,0.4-0.2,0.7-0.4c0.3-0.2,0.5-0.3,0.7-0.4c0.2-0.1,0.4-0.2,0.5-0.2
	c0.4-0.1,0.8,0,1.1,0.2c0.3,0.2,0.6,0.5,0.7,0.8c0.1,0.4,0.2,0.7,0.1,1.1l0.6,0.4L12,25.6z M14.3,21.6l-0.6-0.4
	c-0.3,0.4-0.6,0.6-0.9,0.7c-0.3,0.1-0.8,0.1-1.2-0.1l0.2-0.8c0.4,0.1,0.7,0.1,0.9,0c0.2-0.1,0.4-0.2,0.5-0.4
	c0.1-0.2,0.2-0.5,0.1-0.7c-0.1-0.2-0.2-0.4-0.4-0.5c-0.2-0.1-0.4-0.1-0.6-0.1c-0.1,0-0.2,0.1-0.4,0.2c-0.1,0.1-0.3,0.2-0.5,0.3
	c-0.4,0.3-0.7,0.5-0.9,0.5c-0.3,0.1-0.7,0-1-0.2C9.3,20.1,9.1,20,9,19.8c-0.1-0.1-0.2-0.3-0.2-0.4c-0.1-0.1-0.1-0.3-0.1-0.5
	c0-0.2,0-0.4,0.1-0.6l-0.6-0.3l0.3-0.5l0.6,0.3c0.2-0.2,0.4-0.4,0.6-0.5c0.2-0.1,0.5-0.1,0.8-0.1l0,0.8c-0.4,0-0.7,0.1-0.9,0.4
	c-0.1,0.2-0.1,0.4-0.1,0.5c0,0.2,0.1,0.3,0.3,0.4c0.1,0.1,0.3,0.1,0.4,0.1c0.2,0,0.4-0.2,0.7-0.4c0.3-0.2,0.5-0.3,0.7-0.4
	c0.2-0.1,0.4-0.2,0.5-0.2c0.4-0.1,0.8,0,1.1,0.2c0.3,0.2,0.6,0.5,0.7,0.8c0.1,0.4,0.2,0.7,0.1,1.1l0.6,0.4L14.3,21.6z M17.5,13.1
	c-0.5,0.9-1.7,1.3-2.7,0.7c-0.9-0.5-1.3-1.7-0.7-2.7c0.3-0.5,0.8-0.8,1.3-0.9L15,11c-0.1,0.2,0,0.5,0.3,0.6l1.1,0.4
	c0.2,0.1,0.5,0,0.6-0.3l0.3-0.8C17.8,11.6,17.9,12.4,17.5,13.1z"/>
<path id="circle" class="st0" d="M27.9,8.5c0,4.6-3.7,8.2-8.2,8.2c-4.6,0-8.2-3.7-8.2-8.2c0-4.6,3.7-8.2,8.2-8.2
	C24.2,0.2,27.9,3.9,27.9,8.5"/>
<circle id="border" class="st4" cx="19.6" cy="8.5" r="8.2"/>
<text id="count" transform="matrix(1 0 0 1 14.2822 12.2593)" class="st1 st3 st5">12</text>
</svg>

