<?xml version="1.0" encoding="utf-8"?>
<!DOCTYPE svg PUBLIC "-//W3C//DTD SVG 1.1//EN" "http://www.w3.org/Graphics/SVG/1.1/DTD/svg11.dtd">
<svg version="1.1" id="Layer_1" xmlns="http://www.w3.org/2000/svg" xmlns:xlink="http://www.w3.org/1999/xlink" x="0px" y="0px"
	 width="31.9px" height="32.3px" viewBox="0 0 31.9 32.3" style="enable-background:new 0 0 31.9 32.3;" xml:space="preserve">
<style type="text/css">
<![CDATA[
	.st0{display:none;fill:#FFFFFF;}
	.st1{font-size:11.5;}
	.st2{fill:#B6B7B7;}
	.st3{font-family:'ProximaNova-Bold';}
	.st4{fill:#FFFFFF;}
	.st5{fill:none;stroke:#FFFFFF;stroke-width:0.25;stroke-miterlimit:10;}
	.st6{display:none;fill:none;stroke:#FFFFFF;stroke-width:0.5;stroke-miterlimit:10;}
	.st7{display:none;fill:#28A8E0;}
	.st8{fill:none;stroke:#FFFFFF;stroke-width:0.5;stroke-miterlimit:10;}
]]>
</style>
<path class="st2" d="M21.9,7.2c-0.2-0.3-0.5-0.4-0.8-0.4h-6.7H14H8c-0.3,0-0.7,0.1-0.8,0.4C7,7.5,0,20.8,0,21.4v10.2
	c0,0.4,0.1,0.7,0.7,0.7H14h0.3h14c0.6,0,0.7-0.3,0.7-0.7V21.4C29,20.8,22.1,7.5,21.9,7.2"/>
<path class="st4" d="M20.1,12.4h-4.6h-1.8H9l-4,8.9h1.3c0.5,0,0.8-0.1,1.3,0.8c0.1,0.2,0.3,0.4,0.5,0.7h5.5h1.8h5.5
	c0.2-0.3,0.4-0.6,0.5-0.7c0.6-0.9,0.9-0.8,1.3-0.8h1.3L20.1,12.4z"/>
<path class="st5" d="M20.1,13.1h-4.6h-1.8H9l-3.7,8.2h1c0.5,0,0.8-0.1,1.3,0.8c0.2,0.3,0.5,0.8,0.9,1.4h5.1h1.8h5.1
	c0.4-0.6,0.7-1.1,0.9-1.4c0.6-0.9,0.9-0.8,1.3-0.8h1L20.1,13.1z"/>
<path class="st5" d="M20.1,13.8h-4.6h-1.8H9l-3.3,7.5h0.7c0.5,0,0.8-0.1,1.3,0.8c0.3,0.4,0.8,1.3,1.4,2.1h4.6h1.8H20
	c0.6-0.9,1.2-1.8,1.4-2.1c0.6-0.9,0.9-0.8,1.3-0.8h0.7L20.1,13.8z"/>
<path class="st8" d="M13.4,8.6H9C8.7,8.6,8.3,8.7,8.2,9C8,9.3,3.8,17.5,1.9,21.3h4.4c0.5,0,0.8-0.1,1.3,0.8c0.6,0.9,2.8,4.3,2.8,4.3
	s0.3,0.6,1,0.6h2.3h1.5h2.3c0.7,0,1-0.6,1-0.6s2.3-3.4,2.8-4.3c0.6-0.9,0.9-0.8,1.3-0.8h4.4C25.3,17.5,21,9.3,20.9,9
	c-0.2-0.3-0.5-0.4-0.8-0.4h-4.3H13.4z"/>
<circle id="Border" class="st6" cx="23.4" cy="8.5" r="8.2"/>
<path id="Circle" class="st7" d="M31.6,8.5c0,4.6-3.7,8.2-8.2,8.2c-4.6,0-8.2-3.7-8.2-8.2c0-4.6,3.7-8.2,8.2-8.2
	C27.9,0.2,31.6,3.9,31.6,8.5"/>
<text id="Count" transform="matrix(1 0 0 1 16.458 12.6367)" class="st0 st3 st1">88</text>
</svg>

