<?xml version="1.0" encoding="utf-8"?>
<!DOCTYPE svg PUBLIC "-//W3C//DTD SVG 1.1//EN" "http://www.w3.org/Graphics/SVG/1.1/DTD/svg11.dtd">
<svg version="1.1" id="Layer_1" xmlns="http://www.w3.org/2000/svg" xmlns:xlink="http://www.w3.org/1999/xlink" x="0px" y="0px"
	 width="28px" height="28px" viewBox="0 0 28 28" style="fill:#B6B7B7;" xml:space="preserve">
<path d="M23.2,17.3l0.2-0.1l4.6-1.5v-2.4l-4.6-1.5l-0.1-0.1c-0.2-0.6-0.5-1.2-0.8-1.8l-0.1-0.1l2-4.2l-1.7-1.7l-4.2,2
	l-0.1-0.1c-0.6-0.3-1.2-0.6-1.8-0.8l-0.1-0.3L14.9,0h-2.4L11,4.7l-0.1,0.1C10.2,5,9.6,5.3,9,5.6L8.9,5.7l-4.2-2L3,5.4l2,4.2L4.9,9.7
	c-0.3,0.6-0.6,1.2-0.7,1.8l0.1,0.1L0,13.2v2.4l4.3,1.5l0,0.1C4.5,18,4.7,18.6,5,19.1l0,0.1L3,23.5l1.7,1.7l4.2-2l0.1,0.1
	c0.6,0.3,1.2,0.5,1.8,0.7l0.1-0.2l1.5,4.2h2.4l1.5-4.2l0.1,0.1c0.6-0.2,1.2-0.4,1.8-0.7l0.1,0l4.3,2.1l1.7-1.7l-2.1-4.3l0.1-0.1
	C22.8,18.5,23.1,17.9,23.2,17.3z M13.7,21c-3.6,0-6.6-2.9-6.6-6.6c0-3.6,2.9-6.6,6.6-6.6c3.6,0,6.6,2.9,6.6,6.6
	C20.3,18,17.3,21,13.7,21z"/>
</svg>
