<?xml version="1.0" encoding="utf-8"?>
<!-- Generator: Adobe Illustrator 17.1.0, SVG Export Plug-In . SVG Version: 6.00 Build 0)  -->
<!DOCTYPE svg PUBLIC "-//W3C//DTD SVG 1.1//EN" "http://www.w3.org/Graphics/SVG/1.1/DTD/svg11.dtd">
<svg version="1.1" id="Layer_1" xmlns="http://www.w3.org/2000/svg" xmlns:xlink="http://www.w3.org/1999/xlink" x="0px" y="0px"
	 viewBox="0 0 578.9 204.8" enable-background="new 0 0 578.9 204.8" xml:space="preserve">
<g id="new_eekoh_workmark_3_">
	<path fill="#FFFFFF" d="M399.1,35.9c-28.6,0-51.7,23.2-51.7,51.7c0,28.6,23.2,51.7,51.7,51.7s51.7-23.2,51.7-51.7
		C450.8,59,427.7,35.9,399.1,35.9z M399.1,122.7c-19.4,0-35.1-15.8-35.1-35.1c0-19.4,15.8-35.1,35.1-35.1s35.1,15.8,35.1,35.1
		C434.2,107,418.5,122.7,399.1,122.7z"/>
	<path fill="#FFFFFF" d="M453.3,111.1c-3.1,7.2-7.7,13.7-13.3,19.1c2.3,3.5,15.8,21.8,32.9,29.6c8.3,3.8,16.2,0.3,20.7-5.6
		c4.1-6.2,4.9-14.8-1.4-21.4C478.9,118.7,456.3,111.8,453.3,111.1z"/>
	<path fill="#FFFFFF" d="M74,33.3c-14.8,0-27,5.1-36.7,15.4c-9.7,10.2-14.5,22.8-14.5,37.5c0,15.9,4.9,28.7,14.8,38.5
		c9.9,9.8,22.6,14.6,38,14.6c16.7,0,30.4-4.9,41-14.8l-10-14.4c-7.5,7.5-17.1,11.3-28.8,11.3c-9.1,0-16.4-2.6-22.2-7.9
		c-5.7-5.3-9-11.9-9.8-19.9h77.8V88c0-16-4.5-29.2-13.6-39.4C100.9,38.4,88.9,33.3,74,33.3z M45.6,77.8c0.4-7,3.1-13.1,7.9-18.5
		c4.9-5.4,11.6-8,20.3-8c9.1,0,16,2.7,20.8,8c4.8,5.4,7.4,11.5,7.8,18.5H45.6z"/>
	<path fill="#FFFFFF" d="M186.5,33.3c-14.8,0-27,5.1-36.7,15.4c-9.7,10.2-14.5,22.8-14.5,37.5c0,15.9,4.9,28.7,14.8,38.5
		c9.9,9.8,22.6,14.6,38,14.6c16.7,0,30.4-4.9,41-14.8l-10-14.4c-7.5,7.5-17.1,11.3-28.8,11.3c-9.1,0-16.4-2.6-22.2-7.9
		c-5.7-5.3-9-11.9-9.8-19.9H236V88c0-16-4.5-29.2-13.6-39.4C213.4,38.4,201.4,33.3,186.5,33.3z M158,77.8c0.4-7,3.1-13.1,7.9-18.5
		c4.9-5.4,11.6-8,20.3-8c9.1,0,16,2.7,20.8,8c4.8,5.4,7.4,11.5,7.8,18.5H158z"/>
	<polygon fill="#FFFFFF" points="345.2,36.9 319.1,36.9 276.5,83.5 276.5,0 255.5,0 255.5,133.6 276.5,133.6 276.5,107.5 
		290.1,93.5 319.5,133.6 346,133.6 305.1,80.7 	"/>
	<path fill="#FFFFFF" d="M521.2,34.1c-7.1,0-13.6,1.5-19.6,4.6c-6,3-10.8,6.7-14.4,11V0h-17.8v110.5c5.5,2.4,11.8,5.7,17.8,9.9V65.9
		c2.7-3.6,6.2-6.7,10.6-9.2c4.4-2.5,9.1-3.7,14.2-3.7c6.4,0,11.2,1.5,14.5,4.5c3.3,3,4.9,8.1,4.9,15.4v60.8h21V65
		C552.3,44.4,541.9,34.1,521.2,34.1z"/>
</g>
<line fill="#FFFFFF" stroke="#FFFFFF" stroke-miterlimit="10" x1="0" y1="166.8" x2="578.9" y2="166.8"/>
<g>
	<path fill="#FFFFFF" d="M93.7,197l2.1-3c1.3,1.3,3.2,2.4,5.7,2.4c2.1,0,3.1-0.9,3.1-2c0-3.1-10.3-0.9-10.3-7.7c0-3,2.6-5.5,6.8-5.5
		c2.8,0,5.2,0.9,7,2.5l-2.1,2.8c-1.5-1.3-3.4-2-5.2-2c-1.6,0-2.5,0.7-2.5,1.8c0,2.8,10.3,0.9,10.3,7.6c0,3.3-2.4,5.7-7.2,5.7
		C97.9,199.8,95.4,198.7,93.7,197z"/>
	<path fill="#FFFFFF" d="M110.2,193c0-3.8,2.8-6.8,6.7-6.8c3.9,0,6.5,2.9,6.5,7.1v0.8h-9.6c0.2,1.6,1.5,2.9,3.7,2.9
		c1.1,0,2.6-0.5,3.4-1.3l1.5,2.3c-1.3,1.2-3.3,1.8-5.3,1.8C113.1,199.8,110.2,197.2,110.2,193z M116.9,189c-2.1,0-3,1.5-3.2,2.8h6.4
		C120,190.5,119.1,189,116.9,189z"/>
	<path fill="#FFFFFF" d="M125,193c0-3.8,2.8-6.8,6.7-6.8c3.9,0,6.5,2.9,6.5,7.1v0.8h-9.6c0.2,1.6,1.5,2.9,3.7,2.9
		c1.1,0,2.6-0.5,3.4-1.3l1.5,2.3c-1.3,1.2-3.3,1.8-5.3,1.8C128,199.8,125,197.2,125,193z M131.7,189c-2.1,0-3,1.5-3.2,2.8h6.4
		C134.8,190.5,134,189,131.7,189z"/>
	<path fill="#FFFFFF" d="M148.3,196.3v-6.7h-2.1v-3h2.1V183h3.4v3.5h2.6v3h-2.6v5.8c0,0.8,0.4,1.4,1.2,1.4c0.5,0,1-0.2,1.2-0.4
		l0.7,2.6c-0.5,0.5-1.4,0.8-2.8,0.8C149.6,199.8,148.3,198.6,148.3,196.3z"/>
	<path fill="#FFFFFF" d="M165.5,199.5v-7.9c0-1.8-0.9-2.4-2.4-2.4c-1.3,0-2.4,0.8-3,1.5v8.8h-3.4v-17.9h3.4v6.6c0.8-1,2.4-2,4.5-2
		c2.8,0,4.2,1.6,4.2,4.1v9.2H165.5z"/>
	<path fill="#FFFFFF" d="M171.4,193c0-3.8,2.8-6.8,6.7-6.8c3.9,0,6.5,2.9,6.5,7.1v0.8H175c0.2,1.6,1.5,2.9,3.7,2.9
		c1.1,0,2.6-0.5,3.4-1.3l1.5,2.3c-1.3,1.2-3.3,1.8-5.3,1.8C174.4,199.8,171.4,197.2,171.4,193z M178.1,189c-2.1,0-3,1.5-3.2,2.8h6.4
		C181.2,190.5,180.4,189,178.1,189z"/>
	<path fill="#FFFFFF" d="M194.8,199.5v-10h-2.1v-3h2.1V186c0-2.9,1.7-4.7,4.4-4.7c1.3,0,2.6,0.3,3.4,1.2l-1.3,2.1
		c-0.3-0.3-0.8-0.5-1.4-0.5c-1,0-1.6,0.6-1.6,1.9v0.5h2.6v3h-2.6v10H194.8z"/>
	<path fill="#FFFFFF" d="M202,193c0-3.7,2.6-6.8,6.8-6.8c4.3,0,6.9,3.1,6.9,6.8s-2.6,6.8-6.9,6.8C204.5,199.8,202,196.7,202,193z
		 M212.1,193c0-2-1.2-3.8-3.3-3.8c-2.1,0-3.3,1.7-3.3,3.8c0,2,1.2,3.8,3.3,3.8C210.9,196.8,212.1,195.1,212.1,193z"/>
	<path fill="#FFFFFF" d="M218.2,199.5v-13h3.4v1.7c0.9-1.1,2.5-2.1,4.1-2.1v3.3c-0.2-0.1-0.5-0.1-0.9-0.1c-1.1,0-2.6,0.6-3.2,1.5
		v8.6H218.2z"/>
	<path fill="#FFFFFF" d="M227.1,193c0-3.8,2.8-6.8,6.7-6.8c3.9,0,6.5,2.9,6.5,7.1v0.8h-9.6c0.2,1.6,1.5,2.9,3.7,2.9
		c1.1,0,2.6-0.5,3.4-1.3l1.5,2.3c-1.3,1.2-3.3,1.8-5.3,1.8C230,199.8,227.1,197.2,227.1,193z M233.8,189c-2.1,0-3,1.5-3.2,2.8h6.4
		C236.9,190.5,236,189,233.8,189z"/>
	<path fill="#FFFFFF" d="M241.6,197.8l1.5-2.5c1,0.9,2.9,1.8,4.5,1.8c1.5,0,2.2-0.6,2.2-1.4c0-2.1-7.7-0.4-7.7-5.5
		c0-2.2,1.9-4.1,5.3-4.1c2.2,0,3.9,0.8,5.2,1.8l-1.4,2.4c-0.8-0.8-2.3-1.5-3.8-1.5c-1.2,0-2,0.5-2,1.3c0,1.9,7.7,0.3,7.7,5.5
		c0,2.4-2,4.1-5.6,4.1C245.2,199.8,243,199.1,241.6,197.8z"/>
	<path fill="#FFFFFF" d="M256.3,196.3v-6.7h-2.1v-3h2.1V183h3.4v3.5h2.6v3h-2.6v5.8c0,0.8,0.4,1.4,1.2,1.4c0.5,0,1-0.2,1.2-0.4
		l0.7,2.6c-0.5,0.5-1.4,0.8-2.8,0.8C257.5,199.8,256.3,198.6,256.3,196.3z"/>
	<path fill="#FFFFFF" d="M272.2,196.3v-6.7h-2.1v-3h2.1V183h3.4v3.5h2.6v3h-2.6v5.8c0,0.8,0.4,1.4,1.2,1.4c0.5,0,1-0.2,1.2-0.4
		l0.7,2.6c-0.5,0.5-1.4,0.8-2.8,0.8C273.5,199.8,272.2,198.6,272.2,196.3z"/>
	<path fill="#FFFFFF" d="M289.4,199.5v-7.9c0-1.8-0.9-2.4-2.4-2.4c-1.3,0-2.4,0.8-3,1.5v8.8h-3.4v-17.9h3.4v6.6c0.8-1,2.4-2,4.5-2
		c2.8,0,4.2,1.6,4.2,4.1v9.2H289.4z"/>
	<path fill="#FFFFFF" d="M296.2,199.5v-13h3.4v1.7c0.9-1.1,2.5-2.1,4.1-2.1v3.3c-0.2-0.1-0.5-0.1-0.9-0.1c-1.1,0-2.6,0.6-3.2,1.5
		v8.6H296.2z"/>
	<path fill="#FFFFFF" d="M305,193c0-3.7,2.6-6.8,6.8-6.8c4.3,0,6.9,3.1,6.9,6.8s-2.6,6.8-6.9,6.8C307.6,199.8,305,196.7,305,193z
		 M315.2,193c0-2-1.2-3.8-3.3-3.8c-2.1,0-3.3,1.7-3.3,3.8c0,2,1.2,3.8,3.3,3.8C314,196.8,315.2,195.1,315.2,193z"/>
	<path fill="#FFFFFF" d="M330.1,199.5v-1.6c-0.9,1-2.4,2-4.6,2c-2.8,0-4.2-1.6-4.2-4.1v-9.2h3.4v7.9c0,1.8,0.9,2.4,2.4,2.4
		c1.3,0,2.4-0.7,3-1.5v-8.8h3.4v13H330.1z"/>
	<path fill="#FFFFFF" d="M336.6,202.8l1.5-2.4c1,1.1,2.4,1.6,4.1,1.6c1.6,0,3.6-0.7,3.6-3.3v-1.3c-1,1.3-2.4,2-4,2
		c-3.2,0-5.7-2.3-5.7-6.6c0-4.2,2.4-6.6,5.7-6.6c1.6,0,3,0.6,4,2v-1.7h3.4v12.1c0,4.9-3.8,6.1-7,6.1
		C340,204.8,338.2,204.3,336.6,202.8z M345.8,194.9v-4.2c-0.6-0.8-1.8-1.5-2.9-1.5c-2,0-3.3,1.3-3.3,3.6c0,2.2,1.3,3.6,3.3,3.6
		C343.9,196.4,345.2,195.8,345.8,194.9z"/>
	<path fill="#FFFFFF" d="M361.3,199.5v-7.9c0-1.8-0.9-2.4-2.4-2.4c-1.3,0-2.4,0.8-3,1.5v8.8h-3.4v-17.9h3.4v6.6c0.8-1,2.4-2,4.5-2
		c2.8,0,4.2,1.6,4.2,4.1v9.2H361.3z"/>
	<path fill="#FFFFFF" d="M375.7,196.3v-6.7h-2.1v-3h2.1V183h3.4v3.5h2.6v3h-2.6v5.8c0,0.8,0.4,1.4,1.2,1.4c0.5,0,1-0.2,1.2-0.4
		l0.7,2.6c-0.5,0.5-1.4,0.8-2.8,0.8C377,199.8,375.7,198.6,375.7,196.3z"/>
	<path fill="#FFFFFF" d="M392.9,199.5v-7.9c0-1.8-0.9-2.4-2.4-2.4c-1.3,0-2.4,0.8-3,1.5v8.8h-3.4v-17.9h3.4v6.6c0.8-1,2.4-2,4.5-2
		c2.8,0,4.2,1.6,4.2,4.1v9.2H392.9z"/>
	<path fill="#FFFFFF" d="M398.9,193c0-3.8,2.8-6.8,6.7-6.8c3.9,0,6.5,2.9,6.5,7.1v0.8h-9.6c0.2,1.6,1.5,2.9,3.7,2.9
		c1.1,0,2.6-0.5,3.4-1.3l1.5,2.3c-1.3,1.2-3.3,1.8-5.3,1.8C401.8,199.8,398.9,197.2,398.9,193z M405.6,189c-2.1,0-3,1.5-3.2,2.8h6.4
		C408.7,190.5,407.8,189,405.6,189z"/>
	<path fill="#FFFFFF" d="M422.1,196.3v-6.7H420v-3h2.1V183h3.4v3.5h2.6v3h-2.6v5.8c0,0.8,0.4,1.4,1.2,1.4c0.5,0,1-0.2,1.2-0.4
		l0.7,2.6c-0.5,0.5-1.4,0.8-2.8,0.8C423.4,199.8,422.1,198.6,422.1,196.3z"/>
	<path fill="#FFFFFF" d="M430.5,199.5v-13h3.4v1.7c0.9-1.1,2.5-2.1,4.1-2.1v3.3c-0.2-0.1-0.5-0.1-0.9-0.1c-1.1,0-2.6,0.6-3.2,1.5
		v8.6H430.5z"/>
	<path fill="#FFFFFF" d="M439.4,193c0-3.8,2.8-6.8,6.7-6.8c3.9,0,6.5,2.9,6.5,7.1v0.8h-9.6c0.2,1.6,1.5,2.9,3.7,2.9
		c1.1,0,2.6-0.5,3.4-1.3l1.5,2.3c-1.3,1.2-3.3,1.8-5.3,1.8C442.3,199.8,439.4,197.2,439.4,193z M446.1,189c-2.1,0-3,1.5-3.2,2.8h6.4
		C449.2,190.5,448.3,189,446.1,189z"/>
	<path fill="#FFFFFF" d="M454.2,193c0-3.8,2.8-6.8,6.7-6.8c3.9,0,6.5,2.9,6.5,7.1v0.8h-9.6c0.2,1.6,1.5,2.9,3.7,2.9
		c1.1,0,2.6-0.5,3.4-1.3l1.5,2.3c-1.3,1.2-3.3,1.8-5.3,1.8C457.2,199.8,454.2,197.2,454.2,193z M460.9,189c-2.1,0-3,1.5-3.2,2.8h6.4
		C464,190.5,463.2,189,460.9,189z"/>
	<path fill="#FFFFFF" d="M468.8,197.8l1.5-2.5c1,0.9,2.9,1.8,4.5,1.8c1.5,0,2.2-0.6,2.2-1.4c0-2.1-7.7-0.4-7.7-5.5
		c0-2.2,1.9-4.1,5.3-4.1c2.2,0,3.9,0.8,5.2,1.8l-1.4,2.4c-0.8-0.8-2.3-1.5-3.8-1.5c-1.2,0-2,0.5-2,1.3c0,1.9,7.7,0.3,7.7,5.5
		c0,2.4-2,4.1-5.6,4.1C472.3,199.8,470.1,199.1,468.8,197.8z"/>
</g>
</svg>
