<?xml version="1.0" encoding="utf-8"?>
<!-- Generator: Adobe Illustrator 17.1.0, SVG Export Plug-In . SVG Version: 6.00 Build 0)  -->
<!DOCTYPE svg PUBLIC "-//W3C//DTD SVG 1.1//EN" "http://www.w3.org/Graphics/SVG/1.1/DTD/svg11.dtd">
<svg version="1.1" id="Layer_1" xmlns="http://www.w3.org/2000/svg" xmlns:xlink="http://www.w3.org/1999/xlink" x="0px" y="0px"
	 viewBox="0 0 7.6 11.9" enable-background="new 0 0 7.6 11.9" xml:space="preserve">
<g>
	<path fill="#FCB216" d="M5.2,9.4L2.5,9.7c-0.2,0-0.3,0.2-0.3,0.4c0,0.2,0.2,0.3,0.4,0.3l2.7-0.3c0.2,0,0.3-0.2,0.3-0.4
		C5.6,9.5,5.4,9.3,5.2,9.4z"/>
	<path fill="#FCB216" d="M3.8,0C2.1,0,0,1.3,0,3.8c0,0.9,0.1,1.3,1.1,2.8C2,8.2,2,8.8,2,9c0,0.2,0.1,0.3,0.3,0.3
		c0.2,0,2.2-0.2,2.9-0.3c0.3,0,0.3-0.3,0.3-0.3c0.1-0.2,0-0.5,0.9-2.1c1-1.6,1.1-2,1.1-2.8C7.6,1.3,5.5,0,3.8,0z"/>
	<path fill="#FCB216" d="M5.2,10.3l-2.7,0.3c-0.2,0-0.3,0.2-0.3,0.4c0,0.2,0.2,0.3,0.4,0.3L3,11.2c0.1,0.4,0.4,0.7,0.9,0.7
		c0.5,0,0.8-0.4,0.8-0.9c0,0,0,0,0,0L5.3,11c0.2,0,0.3-0.2,0.3-0.4C5.6,10.4,5.4,10.3,5.2,10.3z"/>
</g>
</svg>
