<?xml version="1.0" encoding="utf-8"?>
<!-- Generator: Adobe Illustrator 17.1.0, SVG Export Plug-In . SVG Version: 6.00 Build 0)  -->
<!DOCTYPE svg PUBLIC "-//W3C//DTD SVG 1.1//EN" "http://www.w3.org/Graphics/SVG/1.1/DTD/svg11.dtd">
<svg version="1.1" id="Layer_1" xmlns="http://www.w3.org/2000/svg" xmlns:xlink="http://www.w3.org/1999/xlink" x="0px" y="0px"
	 viewBox="0 0 11.6 8.2" enable-background="new 0 0 11.6 8.2" xml:space="preserve">
<g>
	<g>
		<g>
			<path fill="#8CC541" d="M6.4,7.3c-3.1,0-5.6-1.7-5.6-3.8c0-0.2,0-0.4,0.1-0.5C0.3,3.4,0,4.1,0,4.7C0,5.4,0.3,6,0.9,6.5
				C0.7,7.2,0.5,8.2,0.5,8.2S2.1,7.8,3,7.6c0.5,0.1,1.1,0.2,1.7,0.2c1,0,2-0.2,2.8-0.6C7.1,7.3,6.7,7.3,6.4,7.3z"/>
		</g>
		<g>
			<path fill="#8CC541" d="M10.6,5.5c0.6-0.6,1-1.3,1-2C11.6,1.6,9.3,0,6.4,0C3.5,0,1.2,1.6,1.2,3.5c0,1.9,2.3,3.5,5.2,3.5
				c0.7,0,1.3-0.1,1.9-0.2c1,0.2,2.8,0.6,2.8,0.6S10.8,6.3,10.6,5.5z"/>
		</g>
	</g>
</g>
</svg>
