<?xml version="1.0" encoding="utf-8"?>
<!-- Generator: Adobe Illustrator 17.1.0, SVG Export Plug-In . SVG Version: 6.00 Build 0)  -->
<!DOCTYPE svg PUBLIC "-//W3C//DTD SVG 1.1//EN" "http://www.w3.org/Graphics/SVG/1.1/DTD/svg11.dtd">
<svg version="1.1" id="Layer_1" xmlns="http://www.w3.org/2000/svg" xmlns:xlink="http://www.w3.org/1999/xlink" x="0px" y="0px"
	 viewBox="0 0 9.1 11.9" enable-background="new 0 0 9.1 11.9" xml:space="preserve">
<g id="deals_icon_5_">
	<path fill="none" stroke="#B5B5B5" stroke-width="9.943100e-02" stroke-miterlimit="10" d="M0.8,9.7C0.3,9.5,0.1,9.2,0.1,8.8
		C0,8.5,0.1,8.2,0.3,8l2.6-4.6c0.2-0.4,0.9-1,1.8-1.6C4.9,1.6,5,1.5,5.1,1.5C5.8,0.9,6.4,1,6.7,1.2l1.7,1c0.7,0.4,0.7,1,0.6,1.5
		C9,3.8,9,4,9,4.2c-0.1,1.1-0.3,2-0.5,2.4l-2.6,4.6c-0.1,0.2-0.3,0.4-0.6,0.6c-0.3,0.2-0.7,0.1-1.2-0.1L0.8,9.7z"/>
	<path fill="#D55255" d="M8.1,6.4c0.3-0.5,0.4-2.1,0.5-2.7c0.1-0.7-0.2-0.9-0.4-1C7.9,2.5,7.8,2.4,7.8,2.4L7,2c0,0-0.3-0.2-0.5-0.3
		C6.2,1.5,6,1.4,5.4,1.8C4.9,2.3,3.6,3.2,3.3,3.7C3,4.1,0.8,8,0.7,8.3C0.5,8.5,0.4,8.9,1,9.3l3.4,1.9c0.6,0.4,0.9,0,1-0.3
		C5.6,10.7,7.8,6.9,8.1,6.4z M6.2,4.1C5.8,3.9,5.7,3.4,5.9,3C6.1,2.6,6.6,2.5,7,2.7c0.4,0.2,0.5,0.7,0.3,1.1
		C7.1,4.2,6.6,4.3,6.2,4.1z"/>
	<path fill="#D55255" d="M7.1,3.3c0,0.1-0.1,0.1-0.2,0.1L6.4,3.2C6.3,3.2,6.3,3,6.3,3l1.1-2.8C7.4,0,7.5,0,7.6,0l0.5,0.2
		c0.1,0,0.1,0.1,0.1,0.2L7.1,3.3z"/>
	<g>
		<path fill="#FFFFFF" d="M2.6,7.4l0.3,0.1C2.9,7.4,3,7.3,3.1,7.3c0.1,0,0.2-0.1,0.3-0.1l0,0.3c-0.2,0-0.3,0.1-0.4,0.2
			C3,7.8,3,7.9,3,8c0,0.1,0.1,0.1,0.1,0.2c0.1,0,0.1,0,0.2,0c0.1,0,0.2-0.1,0.3-0.2C3.7,8,3.8,7.9,3.9,7.8C4,7.8,4,7.8,4.1,7.8
			c0.2,0,0.3,0,0.5,0.1C4.7,7.9,4.8,8,4.9,8.2c0.1,0.2,0.1,0.3,0,0.5l0.3,0.2L5,9L4.8,8.9C4.7,9,4.5,9.1,4.4,9.2c-0.1,0-0.3,0-0.5,0
			L4,8.8c0.2,0,0.3,0,0.4,0c0.1,0,0.2-0.1,0.2-0.2c0-0.1,0.1-0.2,0-0.3c0-0.1-0.1-0.2-0.2-0.2c-0.1,0-0.2-0.1-0.3,0
			c0,0-0.1,0-0.2,0.1c-0.1,0-0.1,0.1-0.2,0.1C3.6,8.4,3.5,8.5,3.4,8.5c-0.1,0-0.3,0-0.4-0.1c-0.1,0-0.1-0.1-0.2-0.1
			c0-0.1-0.1-0.1-0.1-0.2c0-0.1,0-0.1,0-0.2c0-0.1,0-0.2,0-0.2L2.5,7.6L2.6,7.4z"/>
	</g>
	<g>
		<path fill="#FFFFFF" d="M3.6,5.7l0.3,0.1C3.9,5.7,4,5.7,4.1,5.6c0.1,0,0.2-0.1,0.3-0.1l0,0.3C4.2,5.9,4.1,6,4,6.1
			C4,6.2,4,6.2,4,6.3C4,6.4,4,6.4,4.1,6.5c0.1,0,0.1,0,0.2,0c0.1,0,0.2-0.1,0.3-0.2c0.1-0.1,0.2-0.1,0.3-0.2c0.1,0,0.2-0.1,0.2-0.1
			c0.2,0,0.3,0,0.5,0.1c0.1,0.1,0.3,0.2,0.3,0.4c0.1,0.2,0.1,0.3,0,0.5l0.3,0.2L6,7.4L5.7,7.2C5.6,7.4,5.5,7.5,5.3,7.5
			c-0.1,0-0.3,0-0.5,0l0.1-0.3c0.2,0,0.3,0,0.4,0c0.1,0,0.2-0.1,0.2-0.2c0.1-0.1,0.1-0.2,0-0.3c0-0.1-0.1-0.2-0.2-0.2
			c-0.1,0-0.2-0.1-0.2,0c0,0-0.1,0-0.2,0.1c-0.1,0-0.1,0.1-0.2,0.1C4.6,6.8,4.4,6.8,4.4,6.8c-0.1,0-0.3,0-0.4-0.1
			c-0.1,0-0.1-0.1-0.2-0.1c0,0-0.1-0.1-0.1-0.2c0-0.1,0-0.1,0-0.2c0-0.1,0-0.2,0-0.2L3.4,5.9L3.6,5.7z"/>
	</g>
</g>
</svg>
