<?xml version="1.0" encoding="utf-8"?>
<!-- Generator: Adobe Illustrator 17.1.0, SVG Export Plug-In . SVG Version: 6.00 Build 0)  -->
<!DOCTYPE svg PUBLIC "-//W3C//DTD SVG 1.1//EN" "http://www.w3.org/Graphics/SVG/1.1/DTD/svg11.dtd">
<svg version="1.1" id="Layer_1" xmlns="http://www.w3.org/2000/svg" xmlns:xlink="http://www.w3.org/1999/xlink" x="0px" y="0px"
	 viewBox="0 0 12.8 12.8" enable-background="new 0 0 12.8 12.8" xml:space="preserve">
<path fill="#29AAE1" d="M11.6,0H1.2C0.5,0,0,0.5,0,1.2v7.1c0,0.6,0.5,1.2,1.2,1.2h3.4c0.4,0,0.8,0.1,1.5,0.7c0.8,0.7,3,2.4,3.1,2.4
	c0.2,0.1,0.4,0.3,0.4,0c0-0.4,0-2.9,0-2.9s0-0.2,0.3-0.2h1.7c0.6,0,1.2-0.5,1.2-1.2V1.2C12.8,0.5,12.2,0,11.6,0z"/>
</svg>
